<svg width="21" height="21" viewBox="0 0 21 21" fill="none" xmlns="http://www.w3.org/2000/svg">
<path d="M4.67578 20.9999V7.01928H0.327305V20.9999H4.67578ZM2.47816 5.14896C3.8809 5.14896 5.00309 3.98002 5.00309 2.57729C5.00309 1.22131 3.8809 0.0991211 2.47816 0.0991211C1.12219 0.0991211 0 1.22131 0 2.57729C0 3.98002 1.12219 5.14896 2.47816 5.14896ZM20.9007 20.9999H20.9475V13.3316C20.9475 9.59096 20.1059 6.69197 15.7106 6.69197C13.6065 6.69197 12.2038 7.86092 11.5959 8.93635H11.5492V7.01928H7.38773V20.9999H11.7362V14.0797C11.7362 12.2562 12.0635 10.5261 14.3079 10.5261C16.5523 10.5261 16.599 12.5835 16.599 14.22V20.9999H20.9007Z" fill="#2B2929"/>
</svg>
