<svg width="14" height="14" viewBox="0 0 14 14" fill="none" xmlns="http://www.w3.org/2000/svg">
<path d="M3.11719 14V4.6796H0.218203V14H3.11719ZM1.65211 3.43272C2.58727 3.43272 3.33539 2.65343 3.33539 1.71827C3.33539 0.814287 2.58727 0.0661621 1.65211 0.0661621C0.748125 0.0661621 0 0.814287 0 1.71827C0 2.65343 0.748125 3.43272 1.65211 3.43272ZM13.9338 14H13.965V8.8878C13.965 6.39405 13.4039 4.4614 10.4738 4.4614C9.07102 4.4614 8.13586 5.24069 7.73063 5.95765H7.69945V4.6796H4.92516V14H7.82414V9.38655C7.82414 8.17085 8.04234 7.01749 9.53859 7.01749C11.0348 7.01749 11.066 8.38905 11.066 9.48007V14H13.9338Z" fill="white"/>
</svg>
