<?xml version="1.0" encoding="UTF-8"?><svg id="a" xmlns="http://www.w3.org/2000/svg" viewBox="0 0 331 200"><path d="M278.92,140.47c-1.88,5.29-7.45,7.94-16.71,7.94h-48.13l60.81-96.03v-1.59h-69.88v1.59h55.78l-60.81,96.03h-5.2l-2.22-.4c-1.61-.13-3.19-1.22-4.73-3.27-1.54-2.05-2.32-4.99-2.32-8.83v-62.1c0-2.91-.07-5.16-.2-6.75-.14-1.59-.7-3.64-1.71-6.15-1.01-2.51-2.49-4.43-4.43-5.75-1.95-1.32-4.87-2.51-8.76-3.57-3.9-1.06-9.06-1.59-15.51-1.59s-12.48,2.41-18.12,7.24c-5.64,4.83-9.53,10.09-11.68,15.77,0-3.57-.2-6.35-.6-8.33-.4-1.98-1.48-4.3-3.22-6.94-1.75-2.64-4.73-4.59-8.96-5.85-4.23-1.26-9.9-1.88-17.02-1.88s-13.56,2.45-19.33,7.34c-5.77,4.89-9.73,10.19-11.88,15.87v-22.42h-14.1v99.21h14.1V78.77c.53-5.42,3.93-11.31,10.17-17.66,6.24-6.35,12.85-9.52,19.83-9.52s11.54,1.66,13.69,4.96c2.15,3.31,3.22,9,3.22,17.06v76.39h14.1V79.37c0-5.29,3.12-11.24,9.36-17.86,6.24-6.61,13.39-9.92,21.45-9.92,6.04,0,10.13,1.66,12.28,4.96,2.15,3.31,3.22,9,3.22,17.06v62.3l.2,3.37c.13,2.38,1.64,4.76,4.53,7.14,2.89,2.38,7.08,3.57,12.59,3.57h73.47c5.64,0,10.07-1.06,13.29-3.18,1.21-.79,2.28-1.82,3.22-3.08,.94-1.26,1.41-2.15,1.41-2.68l-1.21-.59Z"/></svg>