<?xml version="1.0" encoding="utf-8"?>
<!-- Generator: Adobe Illustrator 27.4.1, SVG Export Plug-In . SVG Version: 6.00 Build 0)  -->
<svg version="1.1" id="Calque_1" xmlns="http://www.w3.org/2000/svg" xmlns:xlink="http://www.w3.org/1999/xlink" x="0px" y="0px"
	 viewBox="0 0 784 484.5" style="enable-background:new 0 0 784 484.5;" xml:space="preserve">
<path d="M226.8,287.9v4.9h7v1.7h-7v5.7h-2v-14h9.9v1.7L226.8,287.9L226.8,287.9z"/>
<path d="M244.3,286.1h2v14h-2V286.1z"/>
<path d="M269.3,286.1v14h-1.6l-8.4-10.4v10.4h-2v-14h1.6l8.4,10.4v-10.4H269.3z"/>
<path d="M289.3,296.6h-7.4l-1.5,3.5h-2.1l6.3-14h2l6.4,14h-2.1L289.3,296.6z M288.6,295l-3-6.9l-3,6.9H288.6z"/>
<path d="M313.8,286.1v14h-1.6l-8.4-10.4v10.4h-2v-14h1.6l8.4,10.4v-10.4H313.8z"/>
<path d="M327.3,299.4c-1.1-0.6-2-1.5-2.7-2.6s-1-2.3-1-3.7s0.3-2.6,1-3.7s1.5-1.9,2.7-2.6c1.1-0.6,2.4-0.9,3.8-0.9
	c1.1,0,2.1,0.2,3,0.5c0.9,0.4,1.7,0.9,2.3,1.6l-1.3,1.3c-1.1-1.1-2.4-1.7-3.9-1.7c-1,0-2,0.2-2.8,0.7s-1.5,1.1-2,1.9
	s-0.7,1.7-0.7,2.8c0,1,0.2,1.9,0.7,2.8s1.1,1.5,2,1.9c0.8,0.5,1.8,0.7,2.8,0.7c1.6,0,2.9-0.6,3.9-1.7l1.3,1.3
	c-0.6,0.7-1.4,1.3-2.3,1.6c-0.9,0.4-1.9,0.6-3,0.6C329.7,300.3,328.4,300,327.3,299.4z"/>
<path d="M346.1,286.1h2v14h-2V286.1z"/>
<path d="M368,296.6h-7.4l-1.5,3.5H357l6.3-14h2l6.4,14h-2.1L368,296.6z M367.3,295l-3-6.9l-3,6.9H367.3z"/>
<path d="M380.5,286.1h2v12.3h7.6v1.7h-9.6V286.1z"/>
<path d="M412.4,299.8c-1-0.3-1.8-0.8-2.3-1.3l0.7-1.6c0.5,0.5,1.2,0.9,2.1,1.2c0.8,0.3,1.7,0.5,2.6,0.5c1.2,0,2-0.2,2.6-0.6
	s0.9-0.9,0.9-1.6c0-0.5-0.2-0.9-0.5-1.2s-0.7-0.5-1.2-0.7s-1.1-0.3-2-0.5c-1.1-0.3-1.9-0.5-2.5-0.8s-1.2-0.6-1.7-1.2
	c-0.5-0.5-0.7-1.2-0.7-2.1c0-0.7,0.2-1.4,0.6-2s1-1.1,1.8-1.4s1.8-0.5,3-0.5c0.8,0,1.6,0.1,2.4,0.3s1.5,0.5,2.1,0.9l-0.7,1.6
	c-0.6-0.4-1.2-0.7-1.9-0.8c-0.7-0.2-1.3-0.3-2-0.3c-1.1,0-2,0.2-2.5,0.6s-0.8,0.9-0.8,1.6c0,0.5,0.2,0.9,0.5,1.2
	c0.3,0.3,0.7,0.5,1.2,0.7s1.1,0.3,1.9,0.5c1.1,0.3,1.9,0.5,2.5,0.8s1.2,0.6,1.7,1.2c0.5,0.5,0.7,1.2,0.7,2.1c0,0.7-0.2,1.4-0.6,2
	s-1,1.1-1.8,1.4c-0.8,0.4-1.8,0.5-3,0.5C414.4,300.3,413.4,300.1,412.4,299.8z"/>
<path d="M440.8,298.4v1.7h-10.2v-14h9.9v1.7h-7.9v4.3h7v1.7h-7v4.5L440.8,298.4L440.8,298.4z"/>
<path d="M460.2,300.1l-3-4.3c-0.4,0-0.7,0-0.9,0h-3.5v4.3h-2v-14h5.5c1.8,0,3.2,0.4,4.3,1.3c1,0.9,1.6,2.1,1.6,3.6
	c0,1.1-0.3,2-0.8,2.8s-1.3,1.3-2.3,1.7l3.3,4.7h-2.2V300.1z M459.1,293.4c0.7-0.5,1-1.3,1-2.3s-0.3-1.8-1-2.3s-1.6-0.8-2.9-0.8h-3.4
	v6.3h3.4C457.5,294.2,458.4,293.9,459.1,293.4z"/>
<path d="M484.3,286.1l-6.1,14h-2l-6.2-14h2.2l5,11.5l5.1-11.5H484.3z"/>
<path d="M492.9,286.1h2v14h-2V286.1z"/>
<path d="M508.3,299.4c-1.1-0.6-2-1.5-2.7-2.6s-1-2.3-1-3.7s0.3-2.6,1-3.7s1.5-1.9,2.7-2.6c1.1-0.6,2.4-0.9,3.8-0.9
	c1.1,0,2.1,0.2,3,0.5c0.9,0.4,1.7,0.9,2.3,1.6l-1.3,1.3c-1.1-1.1-2.4-1.7-3.9-1.7c-1,0-2,0.2-2.8,0.7s-1.5,1.1-2,1.9
	s-0.7,1.7-0.7,2.8c0,1,0.2,1.9,0.7,2.8s1.1,1.5,2,1.9c0.8,0.5,1.8,0.7,2.8,0.7c1.6,0,2.9-0.6,3.9-1.7l1.3,1.3
	c-0.6,0.7-1.4,1.3-2.3,1.6c-0.9,0.4-1.9,0.6-3,0.6C510.7,300.3,509.5,300,508.3,299.4z"/>
<path d="M537.3,298.4v1.7h-10.2v-14h9.9v1.7h-7.9v4.3h7v1.7h-7v4.5L537.3,298.4L537.3,298.4z"/>
<path d="M548.4,299.8c-1-0.3-1.8-0.8-2.3-1.3l0.7-1.6c0.5,0.5,1.2,0.9,2.1,1.2c0.8,0.3,1.7,0.5,2.6,0.5c1.2,0,2-0.2,2.6-0.6
	s0.9-0.9,0.9-1.6c0-0.5-0.2-0.9-0.5-1.2s-0.7-0.5-1.2-0.7s-1.1-0.3-2-0.5c-1.1-0.3-1.9-0.5-2.5-0.8s-1.2-0.6-1.7-1.2
	c-0.5-0.5-0.7-1.2-0.7-2.1c0-0.7,0.2-1.4,0.6-2c0.4-0.6,1-1.1,1.8-1.4s1.8-0.5,3-0.5c0.8,0,1.6,0.1,2.4,0.3s1.5,0.5,2.1,0.9
	l-0.7,1.6c-0.6-0.4-1.2-0.7-1.9-0.8c-0.7-0.2-1.3-0.3-2-0.3c-1.1,0-2,0.2-2.5,0.6s-0.8,0.9-0.8,1.6c0,0.5,0.2,0.9,0.5,1.2
	c0.3,0.3,0.7,0.5,1.2,0.7s1.1,0.3,1.9,0.5c1.1,0.3,1.9,0.5,2.5,0.8s1.2,0.6,1.7,1.2c0.5,0.5,0.7,1.2,0.7,2.1c0,0.7-0.2,1.4-0.6,2
	c-0.4,0.6-1,1.1-1.8,1.4c-0.8,0.4-1.8,0.5-3,0.5C550.4,300.3,549.3,300.1,548.4,299.8z"/>
<path d="M266.7,366.6h1.4v9.5h-1.4V366.6z"/>
<path d="M280.3,366.6v9.5h-1.1l-5.6-7.1v7.1h-1.4v-9.5h1.1l5.6,7.1v-7.1H280.3z"/>
<path d="M285.2,375.8c-0.7-0.2-1.1-0.6-1.6-0.9l0.4-1c0.3,0.3,0.8,0.6,1.4,0.8s1.1,0.3,1.7,0.3c0.8,0,1.4-0.1,1.8-0.5
	c0.3-0.2,0.6-0.6,0.6-1c0-0.3-0.1-0.6-0.3-0.8c-0.2-0.2-0.5-0.3-0.8-0.5c-0.3-0.1-0.8-0.2-1.4-0.3c-0.7-0.2-1.2-0.3-1.7-0.6
	c-0.4-0.2-0.8-0.4-1.1-0.8c-0.3-0.3-0.5-0.8-0.5-1.5c0-0.4,0.1-1,0.5-1.4c0.2-0.4,0.7-0.7,1.2-1c0.6-0.2,1.2-0.3,2-0.3
	c0.6,0,1.1,0.1,1.7,0.2c0.6,0.1,1,0.3,1.4,0.7l-0.5,1.1c-0.4-0.2-0.8-0.4-1.2-0.6c-0.5-0.1-0.9-0.2-1.4-0.2c-0.8,0-1.4,0.1-1.7,0.4
	c-0.3,0.3-0.6,0.7-0.6,1.1c0,0.3,0.1,0.6,0.3,0.8c0.2,0.2,0.4,0.3,0.8,0.5c0.3,0.1,0.8,0.2,1.4,0.3c0.7,0.2,1.2,0.3,1.7,0.6
	c0.4,0.2,0.8,0.5,1.1,0.8c0.3,0.3,0.4,0.8,0.4,1.5c0,0.4-0.1,0.9-0.4,1.4c-0.2,0.4-0.7,0.8-1.2,1s-1.2,0.3-2,0.3
	C286.6,376.2,285.9,376.1,285.2,375.8z"/>
<path d="M295.2,375.2c-0.7-0.7-1-1.8-1-3.1v-5.4h1.4v5.3c0,2,0.9,3,2.7,3c0.9,0,1.6-0.2,2-0.8c0.4-0.4,0.7-1.2,0.7-2.2v-5.3h1.4v5.4
	c0,1.4-0.3,2.4-1,3.1c-0.7,0.7-1.7,1.1-2.9,1.1S295.9,375.8,295.2,375.2z"/>
<path d="M312.6,376.1l-2-2.9c-0.2,0-0.4,0-0.6,0h-2.4v2.9h-1.4v-9.5h3.7c1.2,0,2.1,0.3,2.9,0.9c0.7,0.6,1,1.4,1,2.4
	c0,0.7-0.2,1.4-0.6,1.9s-0.9,0.9-1.6,1.1l2.2,3.1H312.6z M311.9,371.6c0.5-0.3,0.7-0.9,0.7-1.6c0-0.7-0.2-1.2-0.7-1.6
	c-0.4-0.3-1.1-0.6-1.9-0.6h-2.2v4.3h2.2C310.8,372.1,311.4,371.9,311.9,371.6z"/>
<path d="M323.5,373.7h-5.1l-1,2.4h-1.4l4.3-9.5h1.4l4.3,9.5h-1.5L323.5,373.7z M322.9,372.7l-2-4.6l-2,4.6H322.9z"/>
<path d="M336.8,366.6v9.5h-1.1L330,369v7.1h-1.4v-9.5h1.1l5.6,7.1v-7.1H336.8z"/>
<path d="M342.6,375.6c-0.8-0.5-1.4-1-1.8-1.7c-0.4-0.8-0.7-1.6-0.7-2.5c0-0.9,0.2-1.7,0.7-2.5c0.5-0.8,1-1.4,1.8-1.7
	c0.8-0.4,1.6-0.7,2.6-0.7c0.8,0,1.5,0.1,2,0.3c0.6,0.2,1.1,0.6,1.6,1.1l-0.9,0.9c-0.7-0.8-1.6-1.1-2.7-1.1c-0.7,0-1.4,0.1-1.9,0.4
	c-0.6,0.3-1,0.8-1.4,1.4c-0.3,0.6-0.4,1.1-0.4,1.8c0,0.7,0.1,1.4,0.4,1.9s0.8,1,1.4,1.4c0.6,0.3,1.2,0.4,1.9,0.4
	c1,0,1.9-0.3,2.7-1.1l0.9,0.9c-0.4,0.4-0.9,0.9-1.6,1.1c-0.6,0.2-1.4,0.3-2,0.3C344.3,376.2,343.4,375.9,342.6,375.6z"/>
<path d="M358.9,374.9v1.1h-6.9v-9.5h6.6v1.1h-5.3v2.9h4.7v1.1h-4.7v3L358.9,374.9L358.9,374.9z"/>
<path d="M369.2,375.6c-0.8-0.5-1.4-1-1.8-1.7c-0.5-0.8-0.7-1.6-0.7-2.5c0-0.9,0.2-1.7,0.7-2.5c0.4-0.8,1-1.4,1.8-1.7
	c0.8-0.4,1.6-0.7,2.6-0.7c0.9,0,1.8,0.2,2.6,0.7c0.8,0.4,1.4,1,1.8,1.7c0.4,0.8,0.7,1.6,0.7,2.5c0,0.9-0.2,1.7-0.7,2.5
	c-0.5,0.8-1,1.4-1.8,1.7c-0.8,0.3-1.6,0.7-2.6,0.7C370.7,376.2,370,375.9,369.2,375.6z M373.5,374.5c0.6-0.3,1-0.8,1.4-1.4
	s0.4-1.1,0.4-1.9c0-0.7-0.1-1.4-0.4-1.8c-0.3-0.6-0.8-1-1.4-1.4s-1.1-0.4-1.9-0.4c-0.8,0-1.4,0.1-1.9,0.4s-1,0.8-1.4,1.4
	c-0.3,0.6-0.5,1.1-0.5,1.8s0.1,1.4,0.5,1.9s0.8,1,1.4,1.4c0.6,0.3,1.2,0.4,1.9,0.4C372.3,374.9,373,374.8,373.5,374.5z"/>
<path d="M381.5,367.8v3.3h4.7v1.1h-4.7v3.8h-1.4v-9.5h6.6v1.1h-5.3L381.5,367.8L381.5,367.8z"/>
<path d="M401.7,367.5c0.7,0.6,1,1.4,1,2.4s-0.3,1.8-1,2.4c-0.7,0.6-1.7,0.9-2.9,0.9h-2.4v2.8H395v-9.4h3.7
	C400,366.6,400.9,366.9,401.7,367.5z M400.7,371.6c0.4-0.3,0.7-0.9,0.7-1.6c0-0.7-0.2-1.2-0.7-1.6s-1.1-0.6-1.9-0.6h-2.2v4.3h2.2
	C399.5,372,400.2,371.9,400.7,371.6z"/>
<path d="M412.9,374.9v1.1h-6.9v-9.5h6.6v1.1h-5.3v2.9h4.7v1.1h-4.7v3L412.9,374.9L412.9,374.9z"/>
<path d="M422.7,376.1l-2-2.9c-0.2,0-0.5,0-0.6,0h-2.4v2.9h-1.4v-9.5h3.7c1.2,0,2.1,0.3,2.9,0.9c0.7,0.6,1,1.4,1,2.4
	c0,0.7-0.2,1.4-0.6,1.9c-0.3,0.6-0.9,0.9-1.6,1.1l2.2,3.1H422.7z M422,371.6c0.4-0.3,0.7-0.9,0.7-1.6c0-0.7-0.2-1.2-0.7-1.6
	c-0.5-0.3-1.1-0.6-1.9-0.6h-2.2v4.3h2.2C420.9,372.1,421.6,371.9,422,371.6z"/>
<path d="M428.2,375.8c-0.7-0.2-1.1-0.6-1.6-0.9l0.5-1c0.3,0.3,0.8,0.6,1.4,0.8s1.1,0.3,1.7,0.3c0.8,0,1.4-0.1,1.8-0.5
	c0.3-0.2,0.6-0.6,0.6-1c0-0.3-0.1-0.6-0.3-0.8c-0.2-0.2-0.4-0.3-0.8-0.5c-0.3-0.1-0.8-0.2-1.4-0.3c-0.7-0.2-1.2-0.3-1.7-0.6
	c-0.4-0.2-0.8-0.4-1.1-0.8c-0.3-0.3-0.4-0.8-0.4-1.5c0-0.4,0.1-1,0.4-1.4c0.2-0.4,0.7-0.7,1.2-1c0.6-0.2,1.2-0.3,2-0.3
	c0.6,0,1.1,0.1,1.7,0.2c0.6,0.1,1,0.3,1.4,0.7l-0.4,1.1c-0.5-0.2-0.8-0.4-1.2-0.6c-0.4-0.1-0.9-0.2-1.4-0.2c-0.8,0-1.4,0.1-1.7,0.4
	s-0.6,0.7-0.6,1.1c0,0.3,0.1,0.6,0.3,0.8c0.2,0.2,0.4,0.3,0.8,0.5c0.3,0.1,0.8,0.2,1.4,0.3c0.7,0.2,1.2,0.3,1.7,0.6
	c0.5,0.2,0.8,0.5,1.1,0.8c0.3,0.3,0.5,0.8,0.5,1.5c0,0.4-0.1,0.9-0.5,1.4c-0.2,0.4-0.7,0.8-1.2,1s-1.2,0.3-2,0.3
	C429.6,376.2,428.9,376.1,428.2,375.8z"/>
<path d="M439,375.6c-0.8-0.5-1.4-1-1.8-1.7c-0.4-0.8-0.7-1.6-0.7-2.5c0-0.9,0.2-1.7,0.7-2.5c0.5-0.8,1-1.4,1.8-1.7
	c0.8-0.4,1.6-0.7,2.6-0.7c0.9,0,1.8,0.2,2.6,0.7c0.8,0.4,1.4,1,1.8,1.7c0.4,0.8,0.7,1.6,0.7,2.5c0,0.9-0.2,1.7-0.7,2.5
	c-0.4,0.8-1,1.4-1.8,1.7c-0.8,0.3-1.6,0.7-2.6,0.7C440.6,376.2,439.8,375.9,439,375.6z M443.4,374.5c0.6-0.3,1-0.8,1.4-1.4
	c0.3-0.6,0.4-1.1,0.4-1.9c0-0.7-0.1-1.4-0.4-1.8c-0.3-0.6-0.8-1-1.4-1.4s-1.1-0.4-1.9-0.4s-1.4,0.1-1.9,0.4s-1,0.8-1.4,1.4
	c-0.3,0.6-0.4,1.1-0.4,1.8s0.1,1.4,0.4,1.9c0.3,0.6,0.8,1,1.4,1.4c0.6,0.3,1.2,0.4,1.9,0.4S442.9,374.8,443.4,374.5z"/>
<path d="M458.2,366.6v9.5H457l-5.6-7.1v7.1h-1.4v-9.5h1.1l5.6,7.1v-7.1H458.2z"/>
<path d="M463,375.8c-0.7-0.2-1.1-0.6-1.6-0.9l0.4-1c0.3,0.3,0.8,0.6,1.4,0.8s1.1,0.3,1.7,0.3c0.8,0,1.4-0.1,1.8-0.5
	c0.3-0.2,0.6-0.6,0.6-1c0-0.3-0.1-0.6-0.3-0.8c-0.2-0.2-0.4-0.3-0.8-0.5c-0.3-0.1-0.8-0.2-1.4-0.3c-0.7-0.2-1.2-0.3-1.7-0.6
	c-0.5-0.2-0.8-0.4-1.1-0.8c-0.3-0.3-0.5-0.8-0.5-1.5c0-0.4,0.1-1,0.5-1.4c0.2-0.4,0.7-0.7,1.2-1c0.6-0.2,1.2-0.3,2-0.3
	c0.6,0,1.1,0.1,1.7,0.2c0.6,0.1,1,0.3,1.4,0.7l-0.5,1.1c-0.4-0.2-0.8-0.4-1.2-0.6c-0.5-0.1-0.9-0.2-1.4-0.2c-0.8,0-1.4,0.1-1.7,0.4
	s-0.6,0.7-0.6,1.1c0,0.3,0.1,0.6,0.3,0.8c0.2,0.2,0.4,0.3,0.8,0.5c0.3,0.1,0.8,0.2,1.4,0.3c0.7,0.2,1.2,0.3,1.7,0.6
	c0.4,0.2,0.8,0.5,1.1,0.8c0.3,0.3,0.4,0.8,0.4,1.5c0,0.4-0.1,0.9-0.4,1.4c-0.2,0.4-0.7,0.8-1.2,1s-1.2,0.3-2,0.3
	C464.3,376.2,463.7,376.1,463,375.8z"/>
<path d="M478.4,367.8v3.3h4.7v1.1h-4.7v3.8h-1.4v-9.5h6.6v1.1h-5.3L478.4,367.8L478.4,367.8z"/>
<path d="M487,366.6h1.4v9.5H487V366.6z"/>
<path d="M498.8,376.1l-2-2.9c-0.2,0-0.4,0-0.6,0h-2.4v2.9h-1.4v-9.5h3.7c1.2,0,2.1,0.3,2.9,0.9c0.7,0.6,1,1.4,1,2.4
	c0,0.7-0.2,1.4-0.6,1.9s-0.9,0.9-1.6,1.1l2.2,3.1H498.8z M498.1,371.6c0.5-0.3,0.7-0.9,0.7-1.6c0-0.7-0.2-1.2-0.7-1.6
	c-0.4-0.3-1.1-0.6-1.9-0.6h-2.2v4.3h2.2C497,372.1,497.6,371.9,498.1,371.6z"/>
<path d="M512.4,376.1v-6.9l-3.4,5.7h-0.7l-3.4-5.7v6.9h-1.3v-9.5h1.1l3.9,6.6l3.9-6.6h1.1v9.5H512.4z"/>
</svg>
