<?xml version="1.0" encoding="UTF-8"?><svg id="a" xmlns="http://www.w3.org/2000/svg" viewBox="0 0 1226.51 330.66"><g><path d="m211.23,157.32c0-6.43-.86-10.96-2.57-13.6-1.71-2.63-4.97-3.95-9.79-3.95-6.42,0-12.11,2.64-17.09,7.91-4.97,5.27-7.46,10.01-7.46,14.23v56.28h-11.23v-60.87c0-6.43-.86-10.96-2.57-13.6-1.71-2.63-5.35-3.95-10.91-3.95s-10.83,2.53-15.8,7.59c-4.98,5.06-7.68,9.75-8.1,14.07v56.76h-11.23v-79.05h11.23v17.87c1.71-4.53,4.87-8.75,9.47-12.65s9.73-5.85,15.4-5.85,10.19.5,13.56,1.5,5.75,2.56,7.14,4.66c1.39,2.11,2.25,3.95,2.57,5.53s.48,3.79.48,6.64c1.71-4.53,4.81-8.72,9.31-12.57,4.49-3.85,9.31-5.77,14.44-5.77s9.25.42,12.36,1.26c3.1.85,5.43,1.79,6.98,2.85,1.55,1.05,2.73,2.58,3.53,4.59.8,2,1.26,3.64,1.36,4.9.11,1.26.16,3.06.16,5.38v49.49c0,3.06.61,5.4,1.85,7.03,1.23,1.63,2.49,2.51,3.77,2.61l1.76.32h4.97v1.26h-9.79c-4.39,0-7.73-.95-10.03-2.85-2.3-1.9-3.51-3.79-3.61-5.69l-.16-2.69v-49.65h0Z"/><path d="m259.7,121.43c-1.28-1.26-1.92-2.85-1.92-4.74s.64-3.5,1.92-4.82,2.89-1.98,4.81-1.98,3.55.66,4.89,1.98,2.01,2.93,2.01,4.82-.67,3.48-2.01,4.74c-1.34,1.27-2.97,1.9-4.89,1.9s-3.53-.63-4.81-1.9h0Zm12.84,96.76c-4.39,0-7.73-.95-10.03-2.85-2.3-1.9-3.51-3.79-3.61-5.69l-.16-2.69v-67.83h11.23v67.83c0,3.06.61,5.4,1.84,7.03s2.43,2.51,3.61,2.61l1.92.32h4.97v1.26h-9.79.02Z"/><path d="m314.91,140.4v-1.26h55.68v1.26l-48.46,76.52h38.35c7.38,0,11.82-2.11,13.32-6.32l.96.47c0,.42-.38,1.13-1.12,2.13-.75,1-1.6,1.82-2.57,2.45-2.57,1.69-6.1,2.53-10.59,2.53h-49.58v-1.26l48.46-76.52h-44.45Z"/><path d="m433.99,145.94v-3.32c-4.81,1.9-9.2,5.72-13.16,11.46-3.96,5.75-6.05,11.15-6.26,16.21v47.9h-11.23v-79.05h11.23v25.14c1.71-6.11,4.97-11.88,9.79-17.31,4.81-5.43,10.27-8.25,16.37-8.46h.64c2.14,0,3.93.71,5.38,2.13,1.44,1.42,2.17,3.19,2.17,5.3s-.72,3.85-2.17,5.22c-1.44,1.37-3.24,2.06-5.38,2.06s-3.91-.69-5.29-2.06c-1.39-1.37-2.09-3.11-2.09-5.22Z"/><path d="m538.94,218.19c-7.28,0-12.25-1.37-14.92-4.11-2.46-2.32-3.69-4.32-3.69-6.01v-3.32c-5.24,9.38-13.64,14.07-25.19,14.07-13.48,0-21.13-6.01-22.94-18.02-.22-1.27-.32-2.55-.32-3.87s.21-2.77.64-4.35c.43-1.58,1.66-3.32,3.69-5.22,4.06-3.79,13-6.11,26.8-6.96,3.42-.32,6.58-.47,9.47-.47s5.51.11,7.86.32v-26.25c-.22-.1-.22-.61,0-1.5.21-.89.02-2.06-.56-3.48-.59-1.42-1.36-2.82-2.33-4.19-.96-1.37-2.68-2.55-5.13-3.56-2.46-1-5.67-1.5-9.63-1.5s-8.58.71-13.88,2.13c-5.29,1.42-9.17,2.82-11.63,4.19l-.64-1.11c9.52-4.32,19.2-6.48,29.04-6.48,11.02,0,18.29,1.95,21.82,5.85,2.78,3.06,4.17,6.27,4.17,9.64v52.96c0,3.06.61,5.4,1.85,7.03,1.23,1.63,2.49,2.51,3.77,2.61l1.77.32h4.97v1.26h-4.97l-.02.02Zm-41.24-.63c5.67,0,10.78-1.92,15.32-5.77,4.55-3.85,6.98-7.56,7.3-11.15v-19.13c-2.89-.21-5.8-.32-8.74-.32s-5.86.16-8.74.47c-8.13.95-13.43,2.74-15.89,5.38-2.46,2.64-3.69,6.27-3.69,10.91,0,.85.05,1.79.16,2.85.96,11.17,5.72,16.76,14.28,16.76Z"/><path d="m636.67,218.19c-4.39,0-7.73-.95-10.03-2.85-2.3-1.9-3.51-3.79-3.61-5.69l-.16-2.69v-49.65c0-8.32-2.25-13.65-6.74-15.97-2.14-1.05-4.87-1.58-8.18-1.58-6.63,0-12.6,2.66-17.89,7.98-5.29,5.32-7.94,10.09-7.94,14.31v56.13h-11.23v-118.41h11.23v57.39c1.71-4.53,4.97-8.78,9.79-12.73,4.81-3.95,10.21-5.93,16.21-5.93,10.37,0,17.3,1.77,20.78,5.3,3.48,3.53,5.22,8.09,5.22,13.68v49.49c0,3.06.61,5.4,1.85,7.03,1.23,1.63,2.43,2.51,3.61,2.61l1.92.32h4.97v1.26h-9.8Z"/><path d="m675.36,121.43c-1.28-1.26-1.92-2.85-1.92-4.74s.64-3.5,1.92-4.82c1.28-1.32,2.89-1.98,4.81-1.98s3.55.66,4.89,1.98,2.01,2.93,2.01,4.82-.67,3.48-2.01,4.74c-1.34,1.27-2.97,1.9-4.89,1.9s-3.53-.63-4.81-1.9Zm12.84,96.76c-4.39,0-7.73-.95-10.03-2.85-2.3-1.9-3.51-3.79-3.61-5.69l-.16-2.69v-67.83h11.23v67.83c0,3.06.61,5.4,1.84,7.03,1.23,1.63,2.43,2.51,3.61,2.61l1.92.32h4.97v1.26h-9.79.02Z"/></g><g><path d="m763.64,143.95v8.52h12.24v3h-12.24v9.87h-3.49v-24.42h17.22v3.04h-13.75.02Z"/><path d="m794.51,140.93h3.49v24.42h-3.49v-24.42Z"/><path d="m838.52,140.93v24.42h-2.86l-14.64-18.21v18.21h-3.49v-24.42h2.86l14.64,18.21v-18.21h3.49Z"/><path d="m873.6,159.24h-12.97l-2.69,6.11h-3.6l11.06-24.42h3.46l11.1,24.42h-3.67l-2.69-6.11Zm-1.23-2.79l-5.27-11.96-5.27,11.96h10.53Z"/><path d="m916.79,140.93v24.42h-2.86l-14.64-18.21v18.21h-3.49v-24.42h2.86l14.64,18.21v-18.21h3.49Z"/><path d="m940.63,164c-1.97-1.09-3.51-2.56-4.62-4.46s-1.67-4.02-1.67-6.41.56-4.49,1.67-6.39,2.67-3.39,4.64-4.46c1.98-1.09,4.18-1.62,6.62-1.62,1.91,0,3.65.32,5.23.97,1.58.63,2.93,1.58,4.06,2.84l-2.26,2.19c-1.84-1.93-4.13-2.9-6.86-2.9-1.81,0-3.46.4-4.92,1.23-1.46.81-2.62,1.93-3.44,3.37-.83,1.42-1.25,3.04-1.25,4.79s.42,3.37,1.25,4.79,1.97,2.55,3.44,3.37c1.47.81,3.11,1.23,4.92,1.23,2.72,0,5-.98,6.86-2.93l2.26,2.19c-1.12,1.25-2.48,2.21-4.07,2.86s-3.34.98-5.25.98c-2.44,0-4.65-.54-6.6-1.62v-.05Z"/><path d="m973.75,140.93h3.49v24.42h-3.49v-24.42Z"/><path d="m1012.32,159.24h-12.97l-2.69,6.11h-3.6l11.06-24.42h3.46l11.1,24.42h-3.67l-2.69-6.11Zm-1.23-2.79l-5.27-11.96-5.27,11.96h10.53Z"/><path d="m1034.51,140.93h3.49v21.38h13.22v3.04h-16.71v-24.42Z"/></g><g><path d="m764.17,217.91c-1.7-.56-3.05-1.32-4.02-2.21l1.28-2.72c.93.84,2.12,1.51,3.58,2.04,1.46.53,2.95.79,4.48.79,2.02,0,3.53-.35,4.53-1.04,1-.68,1.49-1.6,1.49-2.74,0-.84-.28-1.51-.83-2.04-.54-.53-1.23-.93-2.02-1.21-.81-.28-1.93-.6-3.41-.95-1.84-.44-3.32-.88-4.44-1.32-1.12-.44-2.09-1.12-2.9-2.04s-1.21-2.16-1.21-3.72c0-1.3.35-2.48,1.04-3.53.68-1.05,1.72-1.88,3.13-2.51s3.13-.95,5.2-.95c1.44,0,2.86.19,4.25.56,1.4.37,2.6.91,3.6,1.6l-1.16,2.79c-1.02-.65-2.11-1.14-3.28-1.49-1.16-.33-2.3-.51-3.42-.51-1.98,0-3.46.37-4.44,1.07-.98.72-1.47,1.65-1.47,2.79,0,.84.28,1.51.84,2.04s1.25.93,2.07,1.23,1.95.6,3.37.93c1.84.44,3.32.88,4.42,1.33s2.07,1.12,2.88,2.02,1.21,2.12,1.21,3.67c0,1.28-.35,2.44-1.05,3.51-.7,1.05-1.76,1.9-3.18,2.51s-3.16.93-5.23.93c-1.84,0-3.62-.28-5.32-.86l.02.02Z"/><path d="m813.96,215.45v3.04h-17.72v-24.42h17.22v3.04h-13.75v7.5h12.24v2.97h-12.24v7.88h14.24Z"/><path d="m848.14,218.49l-5.27-7.5c-.65.05-1.16.07-1.53.07h-6.04v7.43h-3.49v-24.42h9.52c3.16,0,5.65.75,7.46,2.26,1.81,1.51,2.72,3.6,2.72,6.25,0,1.88-.47,3.49-1.4,4.81-.93,1.33-2.25,2.28-3.97,2.9l5.79,8.2h-3.81.02Zm-1.84-11.82c1.16-.95,1.74-2.32,1.74-4.07s-.58-3.13-1.74-4.06c-1.16-.95-2.84-1.42-5.06-1.42h-5.93v10.99h5.93c2.21,0,3.9-.47,5.06-1.42v-.02Z"/><path d="m890.6,194.08l-10.71,24.42h-3.46l-10.75-24.42h3.77l8.8,20.05,8.87-20.05h3.49-.02Z"/><path d="m905.91,194.08h3.49v24.42h-3.49v-24.42Z"/><path d="m933.23,217.15c-1.97-1.09-3.51-2.56-4.62-4.46s-1.67-4.02-1.67-6.41.56-4.49,1.67-6.39,2.67-3.39,4.64-4.46c1.98-1.09,4.18-1.62,6.62-1.62,1.91,0,3.65.32,5.23.97,1.58.63,2.93,1.58,4.06,2.84l-2.26,2.19c-1.84-1.93-4.13-2.9-6.86-2.9-1.81,0-3.46.4-4.92,1.23-1.46.81-2.62,1.93-3.44,3.37-.83,1.42-1.25,3.04-1.25,4.79s.42,3.37,1.25,4.79,1.97,2.55,3.44,3.37c1.47.81,3.11,1.23,4.92,1.23,2.72,0,5-.98,6.86-2.93l2.26,2.19c-1.12,1.25-2.48,2.21-4.07,2.86s-3.34.98-5.25.98c-2.44,0-4.65-.54-6.6-1.62v-.05Z"/><path d="m984.07,215.45v3.04h-17.72v-24.42h17.22v3.04h-13.75v7.5h12.24v2.97h-12.24v7.88h14.24Z"/><path d="m1003.72,217.91c-1.7-.56-3.05-1.32-4.02-2.21l1.28-2.72c.93.84,2.12,1.51,3.58,2.04,1.46.53,2.95.79,4.48.79,2.02,0,3.53-.35,4.53-1.04,1-.68,1.49-1.6,1.49-2.74,0-.84-.28-1.51-.83-2.04-.54-.53-1.23-.93-2.02-1.21-.81-.28-1.93-.6-3.41-.95-1.84-.44-3.32-.88-4.44-1.32s-2.09-1.12-2.9-2.04-1.21-2.16-1.21-3.72c0-1.3.35-2.48,1.04-3.53s1.72-1.88,3.13-2.51c1.4-.63,3.13-.95,5.2-.95,1.44,0,2.86.19,4.25.56,1.4.37,2.6.91,3.6,1.6l-1.16,2.79c-1.02-.65-2.11-1.14-3.28-1.49-1.16-.33-2.3-.51-3.42-.51-1.98,0-3.46.37-4.44,1.07-.98.72-1.47,1.65-1.47,2.79,0,.84.28,1.51.84,2.04s1.25.93,2.07,1.23,1.95.6,3.37.93c1.84.44,3.32.88,4.42,1.33s2.07,1.12,2.88,2.02,1.21,2.12,1.21,3.67c0,1.28-.35,2.44-1.05,3.51-.7,1.05-1.76,1.9-3.18,2.51s-3.16.93-5.23.93c-1.84,0-3.62-.28-5.32-.86l.02.02Z"/></g></svg>