<?xml version="1.0" encoding="utf-8"?>
<!-- Generator: Adobe Illustrator 27.4.1, SVG Export Plug-In . SVG Version: 6.00 Build 0)  -->
<svg version="1.1" id="Calque_1" xmlns="http://www.w3.org/2000/svg" xmlns:xlink="http://www.w3.org/1999/xlink" x="0px" y="0px"
	 viewBox="0 0 784 484.5" style="enable-background:new 0 0 784 484.5;" xml:space="preserve">
<g>
	<path d="M226.8,287.9v4.9h7v1.7h-7v5.7h-2v-14h9.9v1.7L226.8,287.9L226.8,287.9z"/>
	<path d="M244.3,286.1h2v14h-2V286.1z"/>
	<path d="M269.3,286.1v14h-1.6l-8.4-10.4v10.4h-2v-14h1.6l8.4,10.4v-10.4H269.3z"/>
	<path d="M289.3,296.6h-7.4l-1.5,3.5h-2.1l6.3-14h2l6.4,14h-2.1L289.3,296.6z M288.6,295l-3-6.9l-3,6.9H288.6z"/>
	<path d="M313.8,286.1v14h-1.6l-8.4-10.4v10.4h-2v-14h1.6l8.4,10.4v-10.4H313.8z"/>
	<path d="M327.3,299.4c-1.1-0.6-2-1.5-2.7-2.6s-1-2.3-1-3.7s0.3-2.6,1-3.7s1.5-1.9,2.7-2.6c1.1-0.6,2.4-0.9,3.8-0.9
		c1.1,0,2.1,0.2,3,0.5c0.9,0.4,1.7,0.9,2.3,1.6l-1.3,1.3c-1.1-1.1-2.4-1.7-3.9-1.7c-1,0-2,0.2-2.8,0.7s-1.5,1.1-2,1.9
		s-0.7,1.7-0.7,2.8c0,1,0.2,1.9,0.7,2.8s1.1,1.5,2,1.9c0.8,0.5,1.8,0.7,2.8,0.7c1.6,0,2.9-0.6,3.9-1.7l1.3,1.3
		c-0.6,0.7-1.4,1.3-2.3,1.6c-0.9,0.4-1.9,0.6-3,0.6C329.7,300.3,328.4,300,327.3,299.4z"/>
	<path d="M346.1,286.1h2v14h-2V286.1z"/>
	<path d="M368,296.6h-7.4l-1.5,3.5H357l6.3-14h2l6.4,14h-2.1L368,296.6z M367.3,295l-3-6.9l-3,6.9H367.3z"/>
	<path d="M380.5,286.1h2v12.3h7.6v1.7h-9.6V286.1z"/>
	<path d="M412.4,299.8c-1-0.3-1.8-0.8-2.3-1.3l0.7-1.6c0.5,0.5,1.2,0.9,2.1,1.2c0.8,0.3,1.7,0.5,2.6,0.5c1.2,0,2-0.2,2.6-0.6
		s0.9-0.9,0.9-1.6c0-0.5-0.2-0.9-0.5-1.2s-0.7-0.5-1.2-0.7s-1.1-0.3-2-0.5c-1.1-0.3-1.9-0.5-2.5-0.8s-1.2-0.6-1.7-1.2
		c-0.5-0.5-0.7-1.2-0.7-2.1c0-0.7,0.2-1.4,0.6-2s1-1.1,1.8-1.4s1.8-0.5,3-0.5c0.8,0,1.6,0.1,2.4,0.3s1.5,0.5,2.1,0.9l-0.7,1.6
		c-0.6-0.4-1.2-0.7-1.9-0.8c-0.7-0.2-1.3-0.3-2-0.3c-1.1,0-2,0.2-2.5,0.6s-0.8,0.9-0.8,1.6c0,0.5,0.2,0.9,0.5,1.2
		c0.3,0.3,0.7,0.5,1.2,0.7s1.1,0.3,1.9,0.5c1.1,0.3,1.9,0.5,2.5,0.8s1.2,0.6,1.7,1.2c0.5,0.5,0.7,1.2,0.7,2.1c0,0.7-0.2,1.4-0.6,2
		s-1,1.1-1.8,1.4c-0.8,0.4-1.8,0.5-3,0.5C414.4,300.3,413.4,300.1,412.4,299.8z"/>
	<path d="M440.8,298.4v1.7h-10.2v-14h9.9v1.7h-7.9v4.3h7v1.7h-7v4.5L440.8,298.4L440.8,298.4z"/>
	<path d="M460.2,300.1l-3-4.3c-0.4,0-0.7,0-0.9,0h-3.5v4.3h-2v-14h5.5c1.8,0,3.2,0.4,4.3,1.3c1,0.9,1.6,2.1,1.6,3.6
		c0,1.1-0.3,2-0.8,2.8s-1.3,1.3-2.3,1.7l3.3,4.7h-2.2V300.1z M459.1,293.4c0.7-0.5,1-1.3,1-2.3s-0.3-1.8-1-2.3s-1.6-0.8-2.9-0.8
		h-3.4v6.3h3.4C457.5,294.2,458.4,293.9,459.1,293.4z"/>
	<path d="M484.3,286.1l-6.1,14h-2l-6.2-14h2.2l5,11.5l5.1-11.5H484.3z"/>
	<path d="M492.9,286.1h2v14h-2V286.1z"/>
	<path d="M508.3,299.4c-1.1-0.6-2-1.5-2.7-2.6s-1-2.3-1-3.7s0.3-2.6,1-3.7s1.5-1.9,2.7-2.6c1.1-0.6,2.4-0.9,3.8-0.9
		c1.1,0,2.1,0.2,3,0.5c0.9,0.4,1.7,0.9,2.3,1.6l-1.3,1.3c-1.1-1.1-2.4-1.7-3.9-1.7c-1,0-2,0.2-2.8,0.7s-1.5,1.1-2,1.9
		s-0.7,1.7-0.7,2.8c0,1,0.2,1.9,0.7,2.8s1.1,1.5,2,1.9c0.8,0.5,1.8,0.7,2.8,0.7c1.6,0,2.9-0.6,3.9-1.7l1.3,1.3
		c-0.6,0.7-1.4,1.3-2.3,1.6c-0.9,0.4-1.9,0.6-3,0.6C510.7,300.3,509.5,300,508.3,299.4z"/>
	<path d="M537.3,298.4v1.7h-10.2v-14h9.9v1.7h-7.9v4.3h7v1.7h-7v4.5L537.3,298.4L537.3,298.4z"/>
	<path d="M548.4,299.8c-1-0.3-1.8-0.8-2.3-1.3l0.7-1.6c0.5,0.5,1.2,0.9,2.1,1.2c0.8,0.3,1.7,0.5,2.6,0.5c1.2,0,2-0.2,2.6-0.6
		s0.9-0.9,0.9-1.6c0-0.5-0.2-0.9-0.5-1.2s-0.7-0.5-1.2-0.7s-1.1-0.3-2-0.5c-1.1-0.3-1.9-0.5-2.5-0.8s-1.2-0.6-1.7-1.2
		c-0.5-0.5-0.7-1.2-0.7-2.1c0-0.7,0.2-1.4,0.6-2c0.4-0.6,1-1.1,1.8-1.4s1.8-0.5,3-0.5c0.8,0,1.6,0.1,2.4,0.3s1.5,0.5,2.1,0.9
		l-0.7,1.6c-0.6-0.4-1.2-0.7-1.9-0.8c-0.7-0.2-1.3-0.3-2-0.3c-1.1,0-2,0.2-2.5,0.6s-0.8,0.9-0.8,1.6c0,0.5,0.2,0.9,0.5,1.2
		c0.3,0.3,0.7,0.5,1.2,0.7s1.1,0.3,1.9,0.5c1.1,0.3,1.9,0.5,2.5,0.8s1.2,0.6,1.7,1.2c0.5,0.5,0.7,1.2,0.7,2.1c0,0.7-0.2,1.4-0.6,2
		c-0.4,0.6-1,1.1-1.8,1.4c-0.8,0.4-1.8,0.5-3,0.5C550.4,300.3,549.3,300.1,548.4,299.8z"/>
	<path d="M280.4,367.7h1.2v8.4h-1.2V367.7z"/>
	<path d="M292.5,367.7v8.4h-1l-5-6.3v6.3h-1.2v-8.4h1l5,6.3v-6.3H292.5z"/>
	<path d="M296.9,375.9c-0.6-0.2-1-0.5-1.4-0.8l0.4-0.9c0.3,0.3,0.7,0.5,1.2,0.7s1,0.3,1.5,0.3c0.7,0,1.2-0.1,1.6-0.4
		c0.3-0.2,0.5-0.5,0.5-0.9c0-0.3-0.1-0.5-0.3-0.7c-0.2-0.2-0.4-0.3-0.7-0.4c-0.3-0.1-0.7-0.2-1.2-0.3c-0.6-0.2-1.1-0.3-1.5-0.5
		s-0.7-0.4-1-0.7c-0.3-0.3-0.4-0.7-0.4-1.3c0-0.4,0.1-0.9,0.4-1.2c0.2-0.4,0.6-0.6,1.1-0.9c0.5-0.2,1.1-0.3,1.8-0.3
		c0.5,0,1,0.1,1.5,0.2s0.9,0.3,1.2,0.6l-0.4,1c-0.4-0.2-0.7-0.4-1.1-0.5s-0.8-0.2-1.2-0.2c-0.7,0-1.2,0.1-1.5,0.4s-0.5,0.6-0.5,1
		c0,0.3,0.1,0.5,0.3,0.7c0.2,0.2,0.4,0.3,0.7,0.4c0.3,0.1,0.7,0.2,1.2,0.3c0.6,0.2,1.1,0.3,1.5,0.5s0.7,0.4,1,0.7
		c0.3,0.3,0.4,0.7,0.4,1.3c0,0.4-0.1,0.8-0.4,1.2c-0.2,0.4-0.6,0.7-1.1,0.9s-1.1,0.3-1.8,0.3C298.1,376.2,297.5,376.1,296.9,375.9z"
		/>
	<path d="M305.8,375.3c-0.6-0.6-0.9-1.6-0.9-2.8v-4.8h1.2v4.7c0,1.8,0.8,2.7,2.4,2.7c0.8,0,1.4-0.2,1.8-0.7c0.4-0.4,0.6-1.1,0.6-2
		v-4.7h1.2v4.8c0,1.2-0.3,2.1-0.9,2.8c-0.6,0.6-1.5,1-2.6,1S306.4,375.9,305.8,375.3z"/>
	<path d="M321.2,376.1l-1.8-2.6c-0.2,0-0.4,0-0.5,0h-2.1v2.6h-1.2v-8.4h3.3c1.1,0,1.9,0.3,2.6,0.8c0.6,0.5,0.9,1.2,0.9,2.1
		c0,0.6-0.2,1.2-0.5,1.7s-0.8,0.8-1.4,1l2,2.8H321.2z M320.6,372.1c0.4-0.3,0.6-0.8,0.6-1.4s-0.2-1.1-0.6-1.4s-1-0.5-1.7-0.5h-2v3.8
		h2C319.6,372.6,320.2,372.4,320.6,372.1z"/>
	<path d="M330.9,374h-4.5l-0.9,2.1h-1.2l3.8-8.4h1.2l3.8,8.4h-1.3L330.9,374z M330.4,373.1l-1.8-4.1l-1.8,4.1H330.4z"/>
	<path d="M342.7,367.7v8.4h-1l-5-6.3v6.3h-1.2v-8.4h1l5,6.3v-6.3H342.7z"/>
	<path d="M347.9,375.7c-0.7-0.4-1.2-0.9-1.6-1.5c-0.4-0.7-0.6-1.4-0.6-2.2c0-0.8,0.2-1.5,0.6-2.2s0.9-1.2,1.6-1.5
		c0.7-0.4,1.4-0.6,2.3-0.6c0.7,0,1.3,0.1,1.8,0.3s1,0.5,1.4,1l-0.8,0.8c-0.6-0.7-1.4-1-2.4-1c-0.6,0-1.2,0.1-1.7,0.4
		s-0.9,0.7-1.2,1.2c-0.3,0.5-0.4,1-0.4,1.6s0.1,1.2,0.4,1.7s0.7,0.9,1.2,1.2c0.5,0.3,1.1,0.4,1.7,0.4c0.9,0,1.7-0.3,2.4-1l0.8,0.8
		c-0.4,0.4-0.8,0.8-1.4,1c-0.5,0.2-1.2,0.3-1.8,0.3C349.4,376.2,348.6,376,347.9,375.7z"/>
	<path d="M362.4,375.1v1h-6.1v-8.4h5.9v1h-4.7v2.6h4.2v1h-4.2v2.7L362.4,375.1L362.4,375.1z"/>
	<path d="M371.5,375.7c-0.7-0.4-1.2-0.9-1.6-1.5c-0.4-0.7-0.6-1.4-0.6-2.2c0-0.8,0.2-1.5,0.6-2.2s0.9-1.2,1.6-1.5
		c0.7-0.4,1.4-0.6,2.3-0.6c0.8,0,1.6,0.2,2.3,0.6c0.7,0.4,1.2,0.9,1.6,1.5c0.4,0.7,0.6,1.4,0.6,2.2c0,0.8-0.2,1.5-0.6,2.2
		s-0.9,1.2-1.6,1.5s-1.4,0.6-2.3,0.6C372.9,376.2,372.2,376,371.5,375.7z M375.4,374.7c0.5-0.3,0.9-0.7,1.2-1.2s0.4-1,0.4-1.7
		c0-0.6-0.1-1.2-0.4-1.6c-0.3-0.5-0.7-0.9-1.2-1.2s-1-0.4-1.7-0.4s-1.2,0.1-1.7,0.4s-0.9,0.7-1.2,1.2c-0.3,0.5-0.4,1-0.4,1.6
		s0.1,1.2,0.4,1.7s0.7,0.9,1.2,1.2c0.5,0.3,1.1,0.4,1.7,0.4S374.9,375,375.4,374.7z"/>
	<path d="M382.5,368.8v2.9h4.2v1h-4.2v3.4h-1.2v-8.4h5.9v1h-4.7V368.8z"/>
	<path d="M400.4,368.5c0.6,0.5,0.9,1.2,0.9,2.1s-0.3,1.6-0.9,2.1s-1.5,0.8-2.6,0.8h-2.1v2.5h-1.2v-8.4h3.3
		C398.9,367.7,399.7,368,400.4,368.5z M399.5,372.1c0.4-0.3,0.6-0.8,0.6-1.4s-0.2-1.1-0.6-1.4s-1-0.5-1.7-0.5h-2v3.8h2
		C398.5,372.5,399.1,372.4,399.5,372.1z"/>
	<path d="M410.4,375.1v1h-6.1v-8.4h5.9v1h-4.7v2.6h4.2v1h-4.2v2.7L410.4,375.1L410.4,375.1z"/>
	<path d="M419.1,376.1l-1.8-2.6c-0.2,0-0.4,0-0.5,0h-2.1v2.6h-1.2v-8.4h3.3c1.1,0,1.9,0.3,2.6,0.8c0.6,0.5,0.9,1.2,0.9,2.1
		c0,0.6-0.2,1.2-0.5,1.7s-0.8,0.8-1.4,1l2,2.8H419.1z M418.5,372.1c0.4-0.3,0.6-0.8,0.6-1.4s-0.2-1.1-0.6-1.4s-1-0.5-1.7-0.5h-2v3.8
		h2C417.5,372.6,418.1,372.4,418.5,372.1z"/>
	<path d="M424,375.9c-0.6-0.2-1-0.5-1.4-0.8l0.4-0.9c0.3,0.3,0.7,0.5,1.2,0.7s1,0.3,1.5,0.3c0.7,0,1.2-0.1,1.6-0.4
		c0.3-0.2,0.5-0.5,0.5-0.9c0-0.3-0.1-0.5-0.3-0.7c-0.2-0.2-0.4-0.3-0.7-0.4c-0.3-0.1-0.7-0.2-1.2-0.3c-0.6-0.2-1.1-0.3-1.5-0.5
		s-0.7-0.4-1-0.7c-0.3-0.3-0.4-0.7-0.4-1.3c0-0.4,0.1-0.9,0.4-1.2c0.2-0.4,0.6-0.6,1.1-0.9c0.5-0.2,1.1-0.3,1.8-0.3
		c0.5,0,1,0.1,1.5,0.2s0.9,0.3,1.2,0.6l-0.4,1c-0.4-0.2-0.7-0.4-1.1-0.5s-0.8-0.2-1.2-0.2c-0.7,0-1.2,0.1-1.5,0.4s-0.5,0.6-0.5,1
		c0,0.3,0.1,0.5,0.3,0.7c0.2,0.2,0.4,0.3,0.7,0.4c0.3,0.1,0.7,0.2,1.2,0.3c0.6,0.2,1.1,0.3,1.5,0.5s0.7,0.4,1,0.7
		c0.3,0.3,0.4,0.7,0.4,1.3c0,0.4-0.1,0.8-0.4,1.2c-0.2,0.4-0.6,0.7-1.1,0.9s-1.1,0.3-1.8,0.3C425.2,376.2,424.6,376.1,424,375.9z"/>
	<path d="M433.6,375.7c-0.7-0.4-1.2-0.9-1.6-1.5c-0.4-0.7-0.6-1.4-0.6-2.2c0-0.8,0.2-1.5,0.6-2.2s0.9-1.2,1.6-1.5
		c0.7-0.4,1.4-0.6,2.3-0.6c0.8,0,1.6,0.2,2.3,0.6c0.7,0.4,1.2,0.9,1.6,1.5c0.4,0.7,0.6,1.4,0.6,2.2c0,0.8-0.2,1.5-0.6,2.2
		s-0.9,1.2-1.6,1.5s-1.4,0.6-2.3,0.6C435,376.2,434.3,376,433.6,375.7z M437.5,374.7c0.5-0.3,0.9-0.7,1.2-1.2s0.4-1,0.4-1.7
		c0-0.6-0.1-1.2-0.4-1.6c-0.3-0.5-0.7-0.9-1.2-1.2s-1-0.4-1.7-0.4s-1.2,0.1-1.7,0.4s-0.9,0.7-1.2,1.2c-0.3,0.5-0.4,1-0.4,1.6
		s0.1,1.2,0.4,1.7s0.7,0.9,1.2,1.2c0.5,0.3,1.1,0.4,1.7,0.4S437,375,437.5,374.7z"/>
	<path d="M450.6,367.7v8.4h-1l-5-6.3v6.3h-1.2v-8.4h1l5,6.3v-6.3H450.6z"/>
	<path d="M454.9,375.9c-0.6-0.2-1-0.5-1.4-0.8l0.4-0.9c0.3,0.3,0.7,0.5,1.2,0.7s1,0.3,1.5,0.3c0.7,0,1.2-0.1,1.6-0.4
		c0.3-0.2,0.5-0.5,0.5-0.9c0-0.3-0.1-0.5-0.3-0.7c-0.2-0.2-0.4-0.3-0.7-0.4c-0.3-0.1-0.7-0.2-1.2-0.3c-0.6-0.2-1.1-0.3-1.5-0.5
		s-0.7-0.4-1-0.7c-0.3-0.3-0.4-0.7-0.4-1.3c0-0.4,0.1-0.9,0.4-1.2c0.2-0.4,0.6-0.6,1.1-0.9c0.5-0.2,1.1-0.3,1.8-0.3
		c0.5,0,1,0.1,1.5,0.2s0.9,0.3,1.2,0.6l-0.4,1c-0.4-0.2-0.7-0.4-1.1-0.5s-0.8-0.2-1.2-0.2c-0.7,0-1.2,0.1-1.5,0.4s-0.5,0.6-0.5,1
		c0,0.3,0.1,0.5,0.3,0.7c0.2,0.2,0.4,0.3,0.7,0.4c0.3,0.1,0.7,0.2,1.2,0.3c0.6,0.2,1.1,0.3,1.5,0.5s0.7,0.4,1,0.7
		c0.3,0.3,0.4,0.7,0.4,1.3c0,0.4-0.1,0.8-0.4,1.2c-0.2,0.4-0.6,0.7-1.1,0.9s-1.1,0.3-1.8,0.3C456.1,376.2,455.5,376.1,454.9,375.9z"
		/>
	<path d="M468.6,368.8v2.9h4.2v1h-4.2v3.4h-1.2v-8.4h5.9v1h-4.7V368.8z"/>
	<path d="M476.2,367.7h1.2v8.4h-1.2V367.7z"/>
	<path d="M486.7,376.1l-1.8-2.6c-0.2,0-0.4,0-0.5,0h-2.1v2.6h-1.2v-8.4h3.3c1.1,0,1.9,0.3,2.6,0.8c0.6,0.5,0.9,1.2,0.9,2.1
		c0,0.6-0.2,1.2-0.5,1.7s-0.8,0.8-1.4,1l2,2.8H486.7z M486.1,372.1c0.4-0.3,0.6-0.8,0.6-1.4s-0.2-1.1-0.6-1.4s-1-0.5-1.7-0.5h-2v3.8
		h2C485.1,372.6,485.7,372.4,486.1,372.1z"/>
	<path d="M498.8,376.1V370l-3,5.1h-0.6l-3-5.1v6.1H491v-8.4h1l3.5,5.9l3.5-5.9h1v8.4H498.8z"/>
</g>
</svg>
