<?xml version="1.0" encoding="utf-8"?>
<!-- Generator: Adobe Illustrator 27.9.0, SVG Export Plug-In . SVG Version: 6.00 Build 0)  -->
<svg version="1.1" id="Calque_1" xmlns="http://www.w3.org/2000/svg" xmlns:xlink="http://www.w3.org/1999/xlink" x="0px" y="0px"
	 viewBox="0 0 784 487" style="enable-background:new 0 0 784 487;" xml:space="preserve">
<style type="text/css">
	.st0{display:none;enable-background:new    ;}
	.st1{font-family:'Montserrat-Medium';}
	.st2{font-size:20px;}
	.st3{letter-spacing:6;}
</style>
<text transform="matrix(1 0 0 1 214.9355 300.1377)" class="st0 st1 st2 st3">SERVICES FINANCIERS</text>
<g>
	<path d="M216.8,299.8c-1-0.3-1.8-0.8-2.3-1.3l0.7-1.6c0.5,0.5,1.2,0.9,2.1,1.2c0.8,0.3,1.7,0.5,2.6,0.5c1.2,0,2-0.2,2.6-0.6
		s0.9-0.9,0.9-1.6c0-0.5-0.2-0.9-0.5-1.2s-0.7-0.5-1.2-0.7s-1.1-0.3-2-0.5c-1.1-0.3-1.9-0.5-2.5-0.8s-1.2-0.6-1.7-1.2
		c-0.5-0.5-0.7-1.2-0.7-2.1c0-0.7,0.2-1.4,0.6-2c0.4-0.6,1-1.1,1.8-1.4s1.8-0.5,3-0.5c0.8,0,1.6,0.1,2.4,0.3s1.5,0.5,2.1,0.9
		l-0.7,1.6c-0.6-0.4-1.2-0.7-1.9-0.8c-0.7-0.2-1.3-0.3-2-0.3c-1.1,0-2,0.2-2.5,0.6s-0.8,0.9-0.8,1.6c0,0.5,0.2,0.9,0.5,1.2
		c0.3,0.3,0.7,0.5,1.2,0.7s1.1,0.3,1.9,0.5c1.1,0.3,1.9,0.5,2.5,0.8s1.2,0.6,1.7,1.2c0.5,0.5,0.7,1.2,0.7,2.1c0,0.7-0.2,1.4-0.6,2
		c-0.4,0.6-1,1.1-1.8,1.4c-0.8,0.4-1.8,0.5-3,0.5C218.8,300.3,217.8,300.1,216.8,299.8z"/>
	<path d="M245.2,298.4v1.7H235v-14h9.9v1.7H237v4.3h7v1.7h-7v4.5L245.2,298.4L245.2,298.4z"/>
	<path d="M264.6,300.1l-3-4.3c-0.4,0-0.7,0-0.9,0h-3.5v4.3h-2v-14h5.5c1.8,0,3.2,0.4,4.3,1.3c1,0.9,1.6,2.1,1.6,3.6
		c0,1.1-0.3,2-0.8,2.8s-1.3,1.3-2.3,1.7l3.3,4.7h-2.2V300.1z M263.5,293.4c0.7-0.5,1-1.3,1-2.3s-0.3-1.8-1-2.3s-1.6-0.8-2.9-0.8
		h-3.4v6.3h3.4C261.9,294.2,262.9,293.9,263.5,293.4z"/>
	<path d="M288.7,286.1l-6.1,14h-2l-6.2-14h2.2l5,11.5l5.1-11.5H288.7z"/>
	<path d="M297.3,286.1h2v14h-2V286.1z"/>
	<path d="M312.8,299.4c-1.1-0.6-2-1.5-2.7-2.6s-1-2.3-1-3.7s0.3-2.6,1-3.7s1.5-1.9,2.7-2.6c1.1-0.6,2.4-0.9,3.8-0.9
		c1.1,0,2.1,0.2,3,0.5c0.9,0.4,1.7,0.9,2.3,1.6l-1.3,1.3c-1.1-1.1-2.4-1.7-3.9-1.7c-1,0-2,0.2-2.8,0.7s-1.5,1.1-2,1.9
		s-0.7,1.7-0.7,2.8c0,1,0.2,1.9,0.7,2.8s1.1,1.5,2,1.9c0.8,0.5,1.8,0.7,2.8,0.7c1.6,0,2.9-0.6,3.9-1.7l1.3,1.3
		c-0.6,0.7-1.4,1.3-2.3,1.6c-0.9,0.4-1.9,0.6-3,0.6C315.2,300.3,313.9,300,312.8,299.4z"/>
	<path d="M341.7,298.4v1.7h-10.2v-14h9.9v1.7h-7.9v4.3h7v1.7h-7v4.5L341.7,298.4L341.7,298.4z"/>
	<path d="M352.8,299.8c-1-0.3-1.8-0.8-2.3-1.3l0.7-1.6c0.5,0.5,1.2,0.9,2.1,1.2c0.8,0.3,1.7,0.5,2.6,0.5c1.2,0,2-0.2,2.6-0.6
		s0.9-0.9,0.9-1.6c0-0.5-0.2-0.9-0.5-1.2s-0.7-0.5-1.2-0.7s-1.1-0.3-2-0.5c-1.1-0.3-1.9-0.5-2.5-0.8s-1.2-0.6-1.7-1.2
		c-0.5-0.5-0.7-1.2-0.7-2.1c0-0.7,0.2-1.4,0.6-2s1-1.1,1.8-1.4s1.8-0.5,3-0.5c0.8,0,1.6,0.1,2.4,0.3s1.5,0.5,2.1,0.9l-0.7,1.6
		c-0.6-0.4-1.2-0.7-1.9-0.8c-0.7-0.2-1.3-0.3-2-0.3c-1.1,0-2,0.2-2.5,0.6s-0.8,0.9-0.8,1.6c0,0.5,0.2,0.9,0.5,1.2
		c0.3,0.3,0.7,0.5,1.2,0.7s1.1,0.3,1.9,0.5c1.1,0.3,1.9,0.5,2.5,0.8s1.2,0.6,1.7,1.2c0.5,0.5,0.7,1.2,0.7,2.1c0,0.7-0.2,1.4-0.6,2
		s-1,1.1-1.8,1.4c-0.8,0.4-1.8,0.5-3,0.5C354.8,300.3,353.8,300.1,352.8,299.8z"/>
	<path d="M385.2,287.9v4.9h7v1.7h-7v5.7h-2v-14h9.9v1.7L385.2,287.9L385.2,287.9z"/>
	<path d="M402.7,286.1h2v14h-2V286.1z"/>
	<path d="M427.7,286.1v14h-1.6l-8.4-10.4v10.4h-2v-14h1.6l8.4,10.4v-10.4H427.7z"/>
	<path d="M447.6,296.6h-7.4l-1.5,3.5h-2.1l6.3-14h2l6.4,14h-2.1L447.6,296.6z M446.9,295l-3-6.9l-3,6.9H446.9z"/>
	<path d="M472.2,286.1v14h-1.6l-8.4-10.4v10.4h-2v-14h1.6l8.4,10.4v-10.4H472.2z"/>
	<path d="M485.6,299.4c-1.1-0.6-2-1.5-2.7-2.6s-1-2.3-1-3.7s0.3-2.6,1-3.7s1.5-1.9,2.7-2.6c1.1-0.6,2.4-0.9,3.8-0.9
		c1.1,0,2.1,0.2,3,0.5c0.9,0.4,1.7,0.9,2.3,1.6l-1.3,1.3c-1.1-1.1-2.4-1.7-3.9-1.7c-1,0-2,0.2-2.8,0.7s-1.5,1.1-2,1.9
		s-0.7,1.7-0.7,2.8c0,1,0.2,1.9,0.7,2.8s1.1,1.5,2,1.9c0.8,0.5,1.8,0.7,2.8,0.7c1.6,0,2.9-0.6,3.9-1.7l1.3,1.3
		c-0.6,0.7-1.4,1.3-2.3,1.6c-0.9,0.4-1.9,0.6-3,0.6C488,300.3,486.8,300,485.6,299.4z"/>
	<path d="M504.4,286.1h2v14h-2V286.1z"/>
	<path d="M527.6,298.4v1.7h-10.2v-14h9.9v1.7h-7.9v4.3h7v1.7h-7v4.5L527.6,298.4L527.6,298.4z"/>
	<path d="M547,300.1l-3-4.3c-0.4,0-0.7,0-0.9,0h-3.5v4.3h-2v-14h5.5c1.8,0,3.2,0.4,4.3,1.3c1,0.9,1.6,2.1,1.6,3.6
		c0,1.1-0.3,2-0.8,2.8s-1.3,1.3-2.3,1.7l3.3,4.7H547V300.1z M545.9,293.4c0.7-0.5,1-1.3,1-2.3s-0.3-1.8-1-2.3s-1.6-0.8-2.9-0.8h-3.4
		v6.3h3.4C544.3,294.2,545.3,293.9,545.9,293.4z"/>
	<path d="M560,299.8c-1-0.3-1.8-0.8-2.3-1.3l0.7-1.6c0.5,0.5,1.2,0.9,2.1,1.2c0.8,0.3,1.7,0.5,2.6,0.5c1.2,0,2-0.2,2.6-0.6
		s0.9-0.9,0.9-1.6c0-0.5-0.2-0.9-0.5-1.2s-0.7-0.5-1.2-0.7s-1.1-0.3-2-0.5c-1.1-0.3-1.9-0.5-2.5-0.8s-1.2-0.6-1.7-1.2
		c-0.5-0.5-0.7-1.2-0.7-2.1c0-0.7,0.2-1.4,0.6-2c0.4-0.6,1-1.1,1.8-1.4s1.8-0.5,3-0.5c0.8,0,1.6,0.1,2.4,0.3s1.5,0.5,2.1,0.9
		l-0.7,1.6c-0.6-0.4-1.2-0.7-1.9-0.8c-0.7-0.2-1.3-0.3-2-0.3c-1.1,0-2,0.2-2.5,0.6s-0.8,0.9-0.8,1.6c0,0.5,0.2,0.9,0.5,1.2
		c0.3,0.3,0.7,0.5,1.2,0.7s1.1,0.3,1.9,0.5c1.1,0.3,1.9,0.5,2.5,0.8s1.2,0.6,1.7,1.2c0.5,0.5,0.7,1.2,0.7,2.1c0,0.7-0.2,1.4-0.6,2
		c-0.4,0.6-1,1.1-1.8,1.4c-0.8,0.4-1.8,0.5-3,0.5C562,300.3,561,300.1,560,299.8z"/>
</g>
<g>
	<path d="M257.8,375.7c-0.8-0.4-1.4-1-1.8-1.8s-0.6-1.7-0.6-2.7v0c0-1,0.2-1.9,0.6-2.7s1-1.4,1.8-1.8c0.8-0.4,1.7-0.6,2.7-0.6
		c0.8,0,1.5,0.1,2.1,0.4s1.2,0.6,1.6,1.1s0.7,1,0.9,1.6l0,0.1h-1.4l-0.1-0.2c-0.1-0.4-0.4-0.7-0.7-1c-0.3-0.3-0.6-0.5-1.1-0.6
		c-0.4-0.2-0.9-0.2-1.4-0.2c-0.8,0-1.4,0.2-2,0.5s-1,0.8-1.3,1.4s-0.5,1.3-0.5,2.1v0c0,0.8,0.2,1.5,0.5,2.1c0.3,0.6,0.7,1.1,1.3,1.4
		c0.6,0.3,1.2,0.5,2,0.5c0.5,0,1-0.1,1.4-0.2s0.8-0.4,1.1-0.7s0.5-0.7,0.7-1.1l0-0.1h1.4l0,0.1c-0.1,0.6-0.4,1.2-0.9,1.6
		c-0.4,0.5-1,0.8-1.6,1.1c-0.6,0.3-1.4,0.4-2.1,0.4C259.5,376.3,258.6,376.1,257.8,375.7z"/>
	<path d="M271.3,366.2h1v1.5h-0.4l-3.4,8.4h-1.5L271.3,366.2z M269.5,372.3h5l0.5,1H269L269.5,372.3z M272,367.7v-1.5h0.7l4.2,9.9
		h-1.5L272,367.7z"/>
	<path d="M279.3,366.2h1.4v9.9h-1.4V366.2z M280,375h3.3c0.8,0,1.5-0.1,1.9-0.4c0.4-0.3,0.7-0.7,0.7-1.3v0c0-0.4-0.1-0.7-0.3-1
		s-0.5-0.4-0.9-0.6c-0.4-0.1-0.9-0.2-1.5-0.2H280v-1.1h2.8c0.8,0,1.5-0.1,1.9-0.4c0.4-0.3,0.7-0.7,0.7-1.2v0c0-0.5-0.2-0.9-0.6-1.1
		c-0.4-0.3-0.9-0.4-1.6-0.4H280v-1.1h3.6c0.6,0,1.2,0.1,1.7,0.3c0.5,0.2,0.9,0.5,1.1,0.9c0.3,0.4,0.4,0.8,0.4,1.3v0
		c0,0.3-0.1,0.7-0.3,1c-0.2,0.3-0.4,0.6-0.7,0.8c-0.3,0.2-0.7,0.3-1,0.4v0c0.5,0.1,1,0.2,1.4,0.4s0.7,0.5,0.9,0.8
		c0.2,0.3,0.3,0.7,0.3,1.2v0c0,0.6-0.2,1.1-0.5,1.5s-0.7,0.7-1.3,1c-0.6,0.2-1.3,0.3-2.1,0.3H280V375z"/>
	<path d="M290.1,366.2h1.4v9.9h-1.4V366.2z"/>
	<path d="M294.9,366.2h1.4l7.4,9.3l-1.8-1.5h0.6v-7.8h1.4v9.9h-1.4l-7.4-9.3l1.8,1.5h-0.6v7.8h-1.4V366.2z"/>
	<path d="M307.2,366.2h7v1.1h-5.6v3.2h5.3v1.1h-5.3v3.4h5.6v1.1h-7V366.2z"/>
	<path d="M320.1,367.4h-3.6v-1.1h8.5v1.1h-3.6v8.8h-1.4V367.4z"/>
	<path d="M332.2,366.2h3.8c1.1,0,2.1,0.2,2.9,0.6c0.8,0.4,1.4,1,1.8,1.7c0.4,0.7,0.6,1.6,0.6,2.7v0c0,1-0.2,1.9-0.6,2.7
		c-0.4,0.7-1,1.3-1.8,1.7c-0.8,0.4-1.7,0.6-2.9,0.6h-3.8V366.2z M335.9,375c0.9,0,1.6-0.1,2.2-0.4c0.6-0.3,1-0.7,1.3-1.3
		c0.3-0.6,0.5-1.3,0.5-2.1v0c0-0.8-0.2-1.5-0.5-2.1c-0.3-0.6-0.8-1-1.3-1.3c-0.6-0.3-1.3-0.4-2.2-0.4h-2.3v7.7H335.9z"/>
	<path d="M344.2,366.2h7v1.1h-5.6v3.2h5.3v1.1h-5.3v3.4h5.6v1.1h-7V366.2z"/>
	<path d="M360.2,376c-0.6-0.2-1.1-0.5-1.5-0.9c-0.4-0.4-0.6-0.9-0.6-1.5l0-0.1h1.4l0,0.1c0.1,0.3,0.2,0.6,0.5,0.9
		c0.2,0.2,0.6,0.4,1,0.6s0.9,0.2,1.4,0.2c0.5,0,1-0.1,1.4-0.2c0.4-0.1,0.7-0.3,0.9-0.6c0.2-0.3,0.3-0.5,0.3-0.9v0
		c0-0.4-0.2-0.8-0.5-1c-0.3-0.3-0.9-0.5-1.7-0.6l-1.2-0.2c-1.1-0.2-1.9-0.5-2.4-1c-0.5-0.4-0.8-1-0.8-1.8v0c0-0.5,0.2-1,0.5-1.4
		c0.3-0.4,0.8-0.7,1.4-1c0.6-0.2,1.3-0.4,2.1-0.4c0.7,0,1.4,0.1,2,0.3s1,0.6,1.4,1c0.3,0.4,0.5,0.9,0.6,1.4l0,0.1h-1.4l0-0.1
		c-0.1-0.3-0.2-0.6-0.4-0.9c-0.2-0.2-0.5-0.4-0.9-0.5c-0.4-0.1-0.8-0.2-1.3-0.2c-0.5,0-0.9,0.1-1.3,0.2c-0.4,0.1-0.7,0.3-0.9,0.6
		c-0.2,0.2-0.3,0.5-0.3,0.8v0c0,0.4,0.2,0.7,0.5,1c0.3,0.3,0.9,0.5,1.6,0.6l1.2,0.2c1.2,0.2,2,0.6,2.5,1c0.5,0.4,0.8,1,0.8,1.8v0
		c0,0.6-0.2,1.1-0.5,1.5c-0.3,0.4-0.8,0.8-1.4,1c-0.6,0.2-1.4,0.3-2.2,0.3C361.5,376.3,360.8,376.2,360.2,376z"/>
	<path d="M369.3,366.2h7v1.1h-5.6v3.2h5.3v1.1h-5.3v3.4h5.6v1.1h-7V366.2z"/>
	<path d="M379.3,366.2h4.2c0.7,0,1.4,0.1,1.9,0.4s1,0.6,1.3,1c0.3,0.4,0.4,1,0.4,1.6v0c0,0.7-0.2,1.3-0.6,1.8c-0.4,0.5-1,0.8-1.7,1
		l2.6,4.1h-1.6l-2.4-3.9c0,0,0,0,0,0c0,0,0,0,0,0h-2.6v3.9h-1.4V366.2z M383.4,371.1c0.7,0,1.3-0.2,1.7-0.5c0.4-0.3,0.6-0.8,0.6-1.4
		v0c0-0.6-0.2-1-0.6-1.4c-0.4-0.3-1-0.5-1.7-0.5h-2.6v3.8H383.4z"/>
	<path d="M389.2,366.2h1.5l3.4,8.4h0l3.4-8.4h1.5l-4.2,9.9h-1.4L389.2,366.2z"/>
	<path d="M401.3,366.2h1.4v9.9h-1.4V366.2z"/>
	<path d="M408.1,375.7c-0.8-0.4-1.4-1-1.8-1.8s-0.6-1.7-0.6-2.7v0c0-1,0.2-1.9,0.6-2.7s1-1.4,1.8-1.8c0.8-0.4,1.7-0.6,2.7-0.6
		c0.8,0,1.5,0.1,2.1,0.4s1.2,0.6,1.6,1.1s0.7,1,0.9,1.6l0,0.1H414l-0.1-0.2c-0.1-0.4-0.4-0.7-0.7-1c-0.3-0.3-0.6-0.5-1.1-0.6
		c-0.4-0.2-0.9-0.2-1.4-0.2c-0.8,0-1.4,0.2-2,0.5s-1,0.8-1.3,1.4s-0.5,1.3-0.5,2.1v0c0,0.8,0.2,1.5,0.5,2.1c0.3,0.6,0.7,1.1,1.3,1.4
		c0.6,0.3,1.2,0.5,2,0.5c0.5,0,1-0.1,1.4-0.2s0.8-0.4,1.1-0.7s0.5-0.7,0.7-1.1l0-0.1h1.4l0,0.1c-0.1,0.6-0.4,1.2-0.9,1.6
		c-0.4,0.5-1,0.8-1.6,1.1c-0.6,0.3-1.4,0.4-2.1,0.4C409.8,376.3,408.9,376.1,408.1,375.7z"/>
	<path d="M418.2,366.2h7v1.1h-5.6v3.2h5.3v1.1h-5.3v3.4h5.6v1.1h-7V366.2z"/>
	<path d="M432.7,366.2h6.8v1.1h-5.4v3.4h5v1.1h-5v4.3h-1.4V366.2z"/>
	<path d="M442.3,366.2h1.4v9.9h-1.4V366.2z"/>
	<path d="M447.1,366.2h1.4l7.4,9.3l-1.8-1.5h0.6v-7.8h1.4v9.9h-1.4l-7.4-9.3l1.8,1.5h-0.6v7.8h-1.4V366.2z"/>
	<path d="M462.7,366.2h1v1.5h-0.4l-3.4,8.4h-1.5L462.7,366.2z M460.9,372.3h5l0.5,1h-5.9L460.9,372.3z M463.4,367.7v-1.5h0.7
		l4.2,9.9h-1.5L463.4,367.7z"/>
	<path d="M470.8,366.2h1.4l7.4,9.3l-1.8-1.5h0.6v-7.8h1.4v9.9h-1.4l-7.4-9.3l1.8,1.5h-0.6v7.8h-1.4V366.2z"/>
	<path d="M485.1,375.7c-0.8-0.4-1.4-1-1.8-1.8s-0.6-1.7-0.6-2.7v0c0-1,0.2-1.9,0.6-2.7s1-1.4,1.8-1.8c0.8-0.4,1.7-0.6,2.7-0.6
		c0.8,0,1.5,0.1,2.1,0.4s1.2,0.6,1.6,1.1s0.7,1,0.9,1.6l0,0.1H491l-0.1-0.2c-0.1-0.4-0.4-0.7-0.7-1c-0.3-0.3-0.6-0.5-1.1-0.6
		s-0.9-0.2-1.4-0.2c-0.8,0-1.4,0.2-2,0.5s-1,0.8-1.3,1.4s-0.5,1.3-0.5,2.1v0c0,0.8,0.2,1.5,0.5,2.1c0.3,0.6,0.7,1.1,1.3,1.4
		s1.2,0.5,2,0.5c0.5,0,1-0.1,1.4-0.2s0.8-0.4,1.1-0.7s0.5-0.7,0.7-1.1l0-0.1h1.4l0,0.1c-0.1,0.6-0.4,1.2-0.9,1.6s-1,0.8-1.6,1.1
		c-0.6,0.3-1.4,0.4-2.1,0.4C486.8,376.3,485.9,376.1,485.1,375.7z"/>
	<path d="M495.3,366.2h1.4v9.9h-1.4V366.2z"/>
	<path d="M500,366.2h7v1.1h-5.6v3.2h5.3v1.1h-5.3v3.4h5.6v1.1h-7V366.2z"/>
	<path d="M510,366.2h4.2c0.7,0,1.4,0.1,1.9,0.4s1,0.6,1.3,1c0.3,0.4,0.4,1,0.4,1.6v0c0,0.7-0.2,1.3-0.6,1.8s-1,0.8-1.7,1l2.6,4.1
		h-1.6l-2.4-3.9c0,0,0,0,0,0s0,0,0,0h-2.6v3.9H510V366.2z M514.1,371.1c0.7,0,1.3-0.2,1.7-0.5s0.6-0.8,0.6-1.4v0
		c0-0.6-0.2-1-0.6-1.4c-0.4-0.3-1-0.5-1.7-0.5h-2.6v3.8H514.1z"/>
	<path d="M522.3,376c-0.6-0.2-1.1-0.5-1.5-0.9s-0.6-0.9-0.6-1.5l0-0.1h1.4l0,0.1c0.1,0.3,0.2,0.6,0.5,0.9c0.2,0.2,0.6,0.4,1,0.6
		s0.9,0.2,1.4,0.2s1-0.1,1.4-0.2s0.7-0.3,0.9-0.6c0.2-0.3,0.3-0.5,0.3-0.9v0c0-0.4-0.2-0.8-0.5-1c-0.3-0.3-0.9-0.5-1.7-0.6l-1.2-0.2
		c-1.1-0.2-1.9-0.5-2.4-1s-0.8-1-0.8-1.8v0c0-0.5,0.2-1,0.5-1.4c0.3-0.4,0.8-0.7,1.4-1c0.6-0.2,1.3-0.4,2.1-0.4c0.7,0,1.4,0.1,2,0.3
		s1,0.6,1.4,1s0.5,0.9,0.6,1.4l0,0.1H527l0-0.1c-0.1-0.3-0.2-0.6-0.4-0.9c-0.2-0.2-0.5-0.4-0.9-0.5s-0.8-0.2-1.3-0.2
		c-0.5,0-0.9,0.1-1.3,0.2c-0.4,0.1-0.7,0.3-0.9,0.6s-0.3,0.5-0.3,0.8v0c0,0.4,0.2,0.7,0.5,1c0.3,0.3,0.9,0.5,1.6,0.6l1.2,0.2
		c1.2,0.2,2,0.6,2.5,1c0.5,0.4,0.8,1,0.8,1.8v0c0,0.6-0.2,1.1-0.5,1.5c-0.3,0.4-0.8,0.8-1.4,1s-1.4,0.3-2.2,0.3
		C523.6,376.3,522.9,376.2,522.3,376z"/>
</g>
</svg>
