<?xml version="1.0" encoding="utf-8"?>
<!-- Generator: Adobe Illustrator 27.4.0, SVG Export Plug-In . SVG Version: 6.00 Build 0)  -->
<svg version="1.1" id="Calque_1" xmlns="http://www.w3.org/2000/svg" xmlns:xlink="http://www.w3.org/1999/xlink" x="0px" y="0px"
	 viewBox="0 0 784 487" style="enable-background:new 0 0 784 487;" xml:space="preserve">
<style type="text/css">
	.st0{display:none;enable-background:new    ;}
	.st1{font-family:'Montserrat-Medium';}
	.st2{font-size:20px;}
	.st3{letter-spacing:6;}
</style>
<text transform="matrix(1 0 0 1 214.9355 300.1377)" class="st0 st1 st2 st3">SERVICES FINANCIERS</text>
<g>
	<path d="M149.2,349.3c-1.2-0.7-2-1.5-2.7-2.5c-0.7-1.2-1-2.3-1-3.7c0-1.3,0.3-2.5,1-3.7s1.5-2,2.7-2.5c1.2-0.7,2.3-1,3.9-1
		c1.2,0,2.2,0.2,3,0.5s1.7,0.8,2.3,1.7l-1.3,1.3c-1-1.2-2.3-1.7-4-1.7c-1,0-2,0.2-2.8,0.7s-1.5,1.2-2,2s-0.7,1.7-0.7,2.7
		s0.2,2,0.7,2.8s1.2,1.5,2,2s1.8,0.7,2.8,0.7c1.5,0,2.8-0.5,4-1.7l1.3,1.3c-0.7,0.7-1.3,1.3-2.3,1.7c-0.8,0.3-2,0.5-3,0.5
		C151.6,350.1,150.4,349.8,149.2,349.3z"/>
	<path d="M171.8,346.5h-7.5l-1.5,3.5h-2l6.4-14.1h2l6.4,14.1h-2.2L171.8,346.5z M171.2,344.9l-3-6.9l-3,6.9H171.2z"/>
	<path d="M191.1,343.9c0.5,0.7,0.7,1.3,0.7,2.3c0,1.2-0.5,2.2-1.3,2.8c-0.8,0.7-2.2,1-4,1h-6.7v-14.1h6.4c1.7,0,2.8,0.3,3.7,1
		s1.3,1.5,1.3,2.7c0,0.7-0.2,1.3-0.5,1.8s-0.8,1-1.3,1.2C189.9,342.9,190.6,343.4,191.1,343.9z M181.7,337.6v4.5h4.2
		c1,0,1.8-0.2,2.3-0.5s0.8-1,0.8-1.7s-0.3-1.3-0.8-1.7c-0.5-0.3-1.3-0.5-2.3-0.5L181.7,337.6L181.7,337.6z M188.9,347.8
		c0.5-0.3,0.8-1,0.8-1.8c0-1.5-1.2-2.3-3.5-2.3h-4.7v4.7h4.7C187.4,348.5,188.3,348.3,188.9,347.8z"/>
	<path d="M196.8,335.9h2V350h-2V335.9z"/>
	<path d="M217.3,335.9V350h-1.7l-8.4-10.6V350h-2v-14.1h1.7l8.4,10.6v-10.6H217.3z"/>
	<path d="M233.7,348.3v1.7h-10.2v-14.1h9.9v1.7h-7.9v4.4h7v1.7h-7v4.5L233.7,348.3L233.7,348.3z"/>
	<path d="M241.7,337.7h-4.9V336h11.6v1.7h-4.9v12.4h-1.8L241.7,337.7L241.7,337.7z"/>
	<path d="M270.4,348.3v1.7h-10.2v-14.1h9.9v1.7h-7.9v4.4h7v1.7h-7v4.5L270.4,348.3L270.4,348.3z"/>
	<path d="M287.8,335.9V350h-1.7l-8.4-10.6V350h-2v-14.1h1.7l8.4,10.6v-10.6H287.8z"/>
	<path d="M310.5,346.5H303l-1.5,3.5h-2l6.4-14.1h2l6.4,14.1H312L310.5,346.5z M309.8,344.9l-3-6.9l-3,6.9H309.8z"/>
	<path d="M319.2,349.6c-1-0.3-1.7-0.8-2.3-1.3l0.7-1.5c0.5,0.5,1.2,0.8,2,1.2s1.7,0.5,2.5,0.5c1.2,0,2-0.2,2.7-0.7
		c0.5-0.3,0.8-0.8,0.8-1.5c0-0.5-0.2-0.8-0.5-1.2c-0.3-0.3-0.7-0.5-1.2-0.7s-1.2-0.3-2-0.5c-1-0.3-1.8-0.5-2.5-0.8s-1.2-0.7-1.7-1.2
		s-0.7-1.2-0.7-2.2c0-0.7,0.2-1.5,0.7-2c0.3-0.7,1-1,1.8-1.5c0.8-0.3,1.8-0.5,3-0.5c0.8,0,1.7,0.2,2.5,0.3s1.5,0.5,2,1l-0.7,1.7
		c-0.7-0.3-1.2-0.7-1.8-0.8c-0.7-0.2-1.3-0.3-2-0.3c-1.2,0-2,0.2-2.5,0.7s-0.8,1-0.8,1.7c0,0.5,0.2,0.8,0.5,1.2
		c0.3,0.3,0.7,0.5,1.2,0.7s1.2,0.3,2,0.5c1,0.3,1.8,0.5,2.5,0.8s1.2,0.7,1.7,1.2s0.7,1.2,0.7,2.2c0,0.7-0.2,1.3-0.7,2
		c-0.3,0.7-1,1.2-1.8,1.5s-1.8,0.5-3,0.5C321.2,350.1,320.2,350,319.2,349.6z"/>
	<path d="M333.8,349.6c-1-0.3-1.7-0.8-2.3-1.3l0.7-1.5c0.5,0.5,1.2,0.8,2,1.2s1.7,0.5,2.5,0.5c1.2,0,2-0.2,2.7-0.7
		c0.5-0.3,0.8-0.8,0.8-1.5c0-0.5-0.2-0.8-0.5-1.2c-0.3-0.3-0.7-0.5-1.2-0.7s-1.2-0.3-2-0.5c-1-0.3-1.8-0.5-2.5-0.8s-1.2-0.7-1.7-1.2
		s-0.7-1.2-0.7-2.2c0-0.7,0.2-1.5,0.7-2c0.3-0.7,1-1,1.8-1.5c0.8-0.3,1.8-0.5,3-0.5c0.8,0,1.7,0.2,2.5,0.3s1.5,0.5,2,1l-0.7,1.7
		c-0.7-0.3-1.2-0.7-1.8-0.8s-1.3-0.3-2-0.3c-1.2,0-2,0.2-2.5,0.7s-0.8,1-0.8,1.7c0,0.5,0.2,0.8,0.5,1.2c0.3,0.3,0.7,0.5,1.2,0.7
		s1.2,0.3,2,0.5c1,0.3,1.8,0.5,2.5,0.8s1.2,0.7,1.7,1.2s0.7,1.2,0.7,2.2c0,0.7-0.2,1.3-0.7,2c-0.3,0.7-1,1.2-1.8,1.5s-1.8,0.5-3,0.5
		C335.8,350.1,334.8,350,333.8,349.6z"/>
	<path d="M348.7,348.6c-1-1-1.5-2.7-1.5-4.7v-8h2v7.9c0,3,1.3,4.5,4,4.5c1.3,0,2.3-0.3,3-1.2c0.7-0.7,1-1.8,1-3.4v-7.9h2v8
		c0,2-0.5,3.5-1.5,4.7c-1,1-2.5,1.7-4.4,1.7S349.7,349.6,348.7,348.6z"/>
	<path d="M374.5,350l-3-4.4c-0.3,0-0.7,0-0.8,0h-3.5v4.4h-2v-14.1h5.5c1.8,0,3.2,0.5,4.4,1.3c1,0.8,1.5,2,1.5,3.5c0,1-0.3,2-0.8,2.8
		s-1.3,1.3-2.3,1.7l3.4,4.7h-2.4V350z M373.5,343.3c0.7-0.5,1-1.3,1-2.3s-0.3-1.8-1-2.3s-1.7-0.8-2.8-0.8h-3.4v6.4h3.4
		C371.8,344.1,372.8,343.8,373.5,343.3z"/>
	<path d="M390.8,346.5h-7.5l-1.5,3.5h-2l6.4-14.1h2l6.4,14.1h-2.2L390.8,346.5z M390.1,344.9l-3-6.9l-3,6.9H390.1z"/>
	<path d="M410.5,335.9V350h-1.7l-8.4-10.6V350h-2v-14.1h1.7l8.4,10.6v-10.6H410.5z"/>
	<path d="M419.3,349.3c-1.2-0.7-2-1.5-2.7-2.5c-0.7-1.2-1-2.3-1-3.7c0-1.3,0.3-2.5,1-3.7s1.5-2,2.7-2.5c1.2-0.7,2.3-1,3.9-1
		c1.2,0,2.2,0.2,3,0.5s1.7,0.8,2.3,1.7l-1.3,1.3c-1-1.2-2.3-1.7-4-1.7c-1,0-2,0.2-2.8,0.7s-1.5,1.2-2,2s-0.7,1.7-0.7,2.7
		s0.2,2,0.7,2.8s1.2,1.5,2,2s1.8,0.7,2.8,0.7c1.5,0,2.8-0.5,4-1.7l1.3,1.3c-0.7,0.7-1.3,1.3-2.3,1.7c-0.8,0.3-2,0.5-3,0.5
		C421.8,350.1,420.4,349.8,419.3,349.3z"/>
	<path d="M443.6,348.3v1.7h-10.2v-14.1h9.9v1.7h-7.9v4.4h7v1.7h-7v4.5L443.6,348.3L443.6,348.3z"/>
	<path d="M456.3,335.9h5.9c1.5,0,2.8,0.3,4,0.8c1.2,0.7,2,1.3,2.7,2.5c0.7,1,1,2.3,1,3.7c0,1.3-0.3,2.7-1,3.7s-1.5,1.8-2.7,2.5
		s-2.5,0.8-4,0.8h-5.9V335.9z M462.2,348.3c1.2,0,2.2-0.2,3-0.7s1.5-1,2-1.8s0.7-1.7,0.7-2.8c0-1.2-0.2-2-0.7-2.7
		c-0.5-0.8-1.2-1.3-2-1.8s-1.8-0.7-3-0.7h-3.9v10.6L462.2,348.3L462.2,348.3z"/>
	<path d="M485.1,348.3v1.7h-10.2v-14.1h9.9v1.7h-7.9v4.4h7v1.7h-7v4.5L485.1,348.3L485.1,348.3z"/>
	<path d="M507.6,337.2c1,0.8,1.5,2,1.5,3.5s-0.5,2.7-1.5,3.5s-2.5,1.3-4.4,1.3h-3.4v4.2h-2v-14.1h5.5
		C505.2,335.9,506.6,336.4,507.6,337.2z M506.3,343.3c0.7-0.5,1-1.3,1-2.3s-0.3-1.8-1-2.3s-1.7-0.8-2.8-0.8h-3.4v6.4h3.4
		C504.6,343.9,505.6,343.8,506.3,343.3z"/>
	<path d="M524.4,348.3v1.7h-10.2v-14.1h9.9v1.7h-7.9v4.4h7v1.7h-7v4.5L524.4,348.3L524.4,348.3z"/>
	<path d="M539.1,350l-3-4.4c-0.3,0-0.7,0-0.8,0h-3.5v4.4h-2v-14.1h5.5c1.8,0,3.2,0.5,4.4,1.3c1,0.8,1.5,2,1.5,3.5c0,1-0.3,2-0.8,2.8
		s-1.3,1.3-2.3,1.7l3.4,4.7h-2.4V350z M538.1,343.3c0.7-0.5,1-1.3,1-2.3s-0.3-1.8-1-2.3s-1.7-0.8-2.8-0.8h-3.4v6.4h3.4
		C536.4,344.1,537.4,343.8,538.1,343.3z"/>
	<path d="M547.3,349.6c-1-0.3-1.7-0.8-2.3-1.3l0.7-1.5c0.5,0.5,1.2,0.8,2,1.2s1.7,0.5,2.5,0.5c1.2,0,2-0.2,2.7-0.7
		c0.5-0.3,0.8-0.8,0.8-1.5c0-0.5-0.2-0.8-0.5-1.2c-0.3-0.3-0.7-0.5-1.2-0.7s-1.2-0.3-2-0.5c-1-0.3-1.8-0.5-2.5-0.8s-1.2-0.7-1.7-1.2
		s-0.7-1.2-0.7-2.2c0-0.7,0.2-1.5,0.7-2c0.3-0.7,1-1,1.8-1.5c0.8-0.3,1.8-0.5,3-0.5c0.8,0,1.7,0.2,2.5,0.3s1.5,0.5,2,1l-0.7,1.7
		c-0.7-0.3-1.2-0.7-1.8-0.8c-0.7-0.2-1.3-0.3-2-0.3c-1.2,0-2,0.2-2.5,0.7s-0.8,1-0.8,1.7c0,0.5,0.2,0.8,0.5,1.2
		c0.3,0.3,0.7,0.5,1.2,0.7s1.2,0.3,2,0.5c1,0.3,1.8,0.5,2.5,0.8s1.2,0.7,1.7,1.2s0.7,1.2,0.7,2.2c0,0.7-0.2,1.3-0.7,2
		c-0.3,0.7-1,1.2-1.8,1.5s-1.8,0.5-3,0.5C549.3,350.1,548.3,350,547.3,349.6z"/>
	<path d="M563.4,349.3c-1.2-0.7-2-1.5-2.7-2.5c-0.7-1.2-1-2.3-1-3.7c0-1.3,0.3-2.5,1-3.7s1.5-2,2.7-2.5c1.2-0.7,2.3-1,3.9-1
		c1.3,0,2.7,0.3,3.9,1s2,1.5,2.7,2.5c0.7,1.2,1,2.3,1,3.7c0,1.3-0.3,2.5-1,3.7s-1.5,2-2.7,2.5s-2.3,1-3.9,1
		C565.8,350.1,564.4,349.8,563.4,349.3z M570,347.6c0.8-0.5,1.5-1.2,2-2s0.7-1.7,0.7-2.8c0-1-0.2-2-0.7-2.7c-0.5-0.8-1.2-1.5-2-2
		s-1.7-0.7-2.8-0.7c-1.2,0-2,0.2-2.8,0.7s-1.5,1.2-2,2s-0.7,1.7-0.7,2.7s0.2,2,0.7,2.8s1.2,1.5,2,2s1.8,0.7,2.8,0.7
		C568.1,348.3,569.1,348.1,570,347.6z"/>
	<path d="M591.9,335.9V350h-1.7l-8.4-10.6V350h-2v-14.1h1.7l8.4,10.6v-10.6H591.9z"/>
	<path d="M610.2,335.9V350h-1.7l-8.4-10.6V350h-2v-14.1h1.7l8.4,10.6v-10.6H610.2z"/>
	<path d="M626.6,348.3v1.7h-10.2v-14.1h9.9v1.7h-7.9v4.4h7v1.7h-7v4.5L626.6,348.3L626.6,348.3z"/>
	<path d="M633,349.6c-1-0.3-1.7-0.8-2.3-1.3l0.7-1.5c0.5,0.5,1.2,0.8,2,1.2s1.7,0.5,2.5,0.5c1.2,0,2-0.2,2.7-0.7
		c0.5-0.3,0.8-0.8,0.8-1.5c0-0.5-0.2-0.8-0.5-1.2s-0.7-0.5-1.2-0.7s-1.2-0.3-2-0.5c-1-0.3-1.8-0.5-2.5-0.8s-1.2-0.7-1.7-1.2
		s-0.7-1.2-0.7-2.2c0-0.7,0.2-1.5,0.7-2c0.3-0.7,1-1,1.8-1.5c0.8-0.3,1.8-0.5,3-0.5c0.8,0,1.7,0.2,2.5,0.3s1.5,0.5,2,1l-0.7,1.7
		c-0.7-0.3-1.2-0.7-1.8-0.8c-0.7-0.2-1.3-0.3-2-0.3c-1.2,0-2,0.2-2.5,0.7s-0.8,1-0.8,1.7c0,0.5,0.2,0.8,0.5,1.2
		c0.3,0.3,0.7,0.5,1.2,0.7s1.2,0.3,2,0.5c1,0.3,1.8,0.5,2.5,0.8s1.2,0.7,1.7,1.2s0.7,1.2,0.7,2.2c0,0.7-0.2,1.3-0.7,2
		c-0.3,0.7-1,1.2-1.8,1.5s-1.8,0.5-3,0.5C635,350.1,634,350,633,349.6z"/>
</g>
</svg>
