<?xml version="1.0" encoding="utf-8"?>
<!-- Generator: Adobe Illustrator 27.4.0, SVG Export Plug-In . SVG Version: 6.00 Build 0)  -->
<svg version="1.1" id="Calque_1" xmlns="http://www.w3.org/2000/svg" xmlns:xlink="http://www.w3.org/1999/xlink" x="0px" y="0px"
	 viewBox="0 0 784 484.5" style="enable-background:new 0 0 784 484.5;" xml:space="preserve">
<g>
	<path d="M207.5,335.8h2v14.1h-2V335.8z"/>
	<path d="M227.8,335.8v14.1h-1.7l-8.4-10.6v10.6h-2v-14.1h1.7l8.4,10.6v-10.6H227.8z"/>
	<path d="M235.2,349.5c-1-0.3-1.7-0.8-2.3-1.3l0.7-1.5c0.5,0.5,1.2,0.8,2,1.2s1.7,0.5,2.5,0.5c1.2,0,2-0.2,2.7-0.7
		c0.5-0.3,0.8-0.8,0.8-1.5c0-0.5-0.2-0.8-0.5-1.2c-0.3-0.3-0.7-0.5-1.2-0.7s-1.2-0.3-2-0.5c-1-0.3-1.8-0.5-2.5-0.8s-1.2-0.7-1.7-1.2
		s-0.7-1.2-0.7-2.2c0-0.7,0.2-1.5,0.7-2c0.3-0.7,1-1,1.8-1.5c0.8-0.3,1.8-0.5,3-0.5c0.8,0,1.7,0.2,2.5,0.3s1.5,0.5,2,1l-0.7,1.7
		c-0.7-0.3-1.2-0.7-1.8-0.8s-1.3-0.3-2-0.3c-1.2,0-2,0.2-2.5,0.7s-0.8,1-0.8,1.7c0,0.5,0.2,0.8,0.5,1.2c0.3,0.3,0.7,0.5,1.2,0.7
		s1.2,0.3,2,0.5c1,0.3,1.8,0.5,2.5,0.8s1.2,0.7,1.7,1.2s0.7,1.2,0.7,2.2c0,0.7-0.2,1.3-0.7,2c-0.3,0.7-1,1.2-1.8,1.5s-1.8,0.5-3,0.5
		C237.2,350,236.2,349.8,235.2,349.5z"/>
	<path d="M250.1,348.5c-1-1-1.5-2.7-1.5-4.7v-8h2v7.9c0,3,1.3,4.5,4,4.5c1.3,0,2.3-0.3,3-1.2c0.7-0.7,1-1.8,1-3.4v-7.9h2v8
		c0,2-0.5,3.5-1.5,4.7c-1,1-2.5,1.7-4.4,1.7S251.1,349.5,250.1,348.5z"/>
	<path d="M275.9,349.8l-3-4.4c-0.3,0-0.7,0-0.8,0h-3.5v4.4h-2v-14.1h5.5c1.8,0,3.2,0.5,4.4,1.3c1,0.8,1.5,2,1.5,3.5
		c0,1-0.3,2-0.8,2.8s-1.3,1.3-2.3,1.7l3.4,4.7h-2.4V349.8z M274.9,343.1c0.7-0.5,1-1.3,1-2.3s-0.3-1.8-1-2.3s-1.7-0.8-2.8-0.8h-3.4
		v6.4h3.4C273.2,344,274.3,343.6,274.9,343.1z"/>
	<path d="M292.2,346.3h-7.5l-1.5,3.5h-2l6.4-14.1h2l6.4,14.1h-2.2L292.2,346.3z M291.3,344.8l-3-6.9l-3,6.9H291.3z"/>
	<path d="M312,335.8v14.1h-1.7l-8.4-10.6v10.6h-2v-14.1h1.7l8.4,10.6v-10.6H312z"/>
	<path d="M320.7,349.2c-1.2-0.7-2-1.5-2.7-2.5c-0.7-1.2-1-2.3-1-3.7c0-1.3,0.3-2.5,1-3.7s1.5-2,2.7-2.5c1.2-0.7,2.3-1,3.9-1
		c1.2,0,2.2,0.2,3,0.5s1.7,0.8,2.3,1.7l-1.3,1.3c-1-1.2-2.3-1.7-4-1.7c-1,0-2,0.2-2.8,0.7s-1.5,1.2-2,2s-0.7,1.7-0.7,2.7
		s0.2,2,0.7,2.8s1.2,1.5,2,2s1.8,0.7,2.8,0.7c1.5,0,2.8-0.5,4-1.7l1.3,1.3c-0.7,0.7-1.3,1.3-2.3,1.7c-0.8,0.3-2,0.5-3,0.5
		C323.2,350,321.9,349.7,320.7,349.2z"/>
	<path d="M345,348.2v1.7h-10.2v-14.1h9.9v1.7h-7.9v4.4h7v1.7h-7v4.5L345,348.2L345,348.2z"/>
	<path d="M360.2,349.2c-1.2-0.7-2-1.5-2.7-2.5c-0.7-1.2-1-2.3-1-3.7c0-1.3,0.3-2.5,1-3.7s1.5-2,2.7-2.5c1.2-0.7,2.3-1,3.9-1
		c1.3,0,2.7,0.3,3.9,1c1.2,0.7,2,1.5,2.7,2.5c0.7,1.2,1,2.3,1,3.7c0,1.3-0.3,2.5-1,3.7s-1.5,2-2.7,2.5s-2.3,1-3.9,1
		C362.6,350,361.4,349.7,360.2,349.2z M366.8,347.5c0.8-0.5,1.5-1.2,2-2s0.7-1.7,0.7-2.8c0-1-0.2-2-0.7-2.7c-0.5-0.8-1.2-1.5-2-2
		s-1.7-0.7-2.8-0.7s-2,0.2-2.8,0.7s-1.5,1.2-2,2s-0.7,1.7-0.7,2.7s0.2,2,0.7,2.8s1.2,1.5,2,2s1.8,0.7,2.8,0.7S365.9,348,366.8,347.5
		z"/>
	<path d="M378.7,337.6v4.9h7v1.7h-7v5.7h-2v-14.1h9.9v1.7L378.7,337.6L378.7,337.6z"/>
	<path d="M408.7,337.1c1,0.8,1.5,2,1.5,3.5s-0.5,2.7-1.5,3.5s-2.5,1.3-4.4,1.3h-3.5v4.2h-2v-14.1h5.5
		C406.2,335.8,407.5,336.3,408.7,337.1z M407.2,343.1c0.7-0.5,1-1.3,1-2.3s-0.3-1.8-1-2.3s-1.7-0.8-2.8-0.8H401v6.4h3.4
		C405.5,343.8,406.5,343.6,407.2,343.1z"/>
	<path d="M425.5,348.2v1.7h-10.2v-14.1h9.9v1.7h-7.9v4.4h7v1.7h-7v4.5L425.5,348.2L425.5,348.2z"/>
	<path d="M440,349.8l-3-4.4c-0.3,0-0.7,0-0.8,0h-3.5v4.4h-2v-14.1h5.5c1.8,0,3.2,0.5,4.4,1.3c1,0.8,1.5,2,1.5,3.5c0,1-0.3,2-0.8,2.8
		s-1.3,1.3-2.3,1.7l3.4,4.7H440V349.8z M439,343.1c0.7-0.5,1-1.3,1-2.3s-0.3-1.8-1-2.3s-1.7-0.8-2.8-0.8h-3.4v6.4h3.4
		C437.4,344,438.4,343.6,439,343.1z"/>
	<path d="M448.2,349.5c-1-0.3-1.7-0.8-2.3-1.3l0.7-1.5c0.5,0.5,1.2,0.8,2,1.2s1.7,0.5,2.5,0.5c1.2,0,2-0.2,2.7-0.7
		c0.5-0.3,0.8-0.8,0.8-1.5c0-0.5-0.2-0.8-0.5-1.2c-0.3-0.3-0.7-0.5-1.2-0.7s-1.2-0.3-2-0.5c-1-0.3-1.8-0.5-2.5-0.8s-1.2-0.7-1.7-1.2
		s-0.7-1.2-0.7-2.2c0-0.7,0.2-1.5,0.7-2c0.3-0.7,1-1,1.8-1.5c0.8-0.3,1.8-0.5,3-0.5c0.8,0,1.7,0.2,2.5,0.3s1.5,0.5,2,1l-0.7,1.7
		c-0.7-0.3-1.2-0.7-1.8-0.8s-1.3-0.3-2-0.3c-1.2,0-2,0.2-2.5,0.7s-0.8,1-0.8,1.7c0,0.5,0.2,0.8,0.5,1.2c0.3,0.3,0.7,0.5,1.2,0.7
		s1.2,0.3,2,0.5c1,0.3,1.8,0.5,2.5,0.8s1.2,0.7,1.7,1.2s0.7,1.2,0.7,2.2c0,0.7-0.2,1.3-0.7,2c-0.3,0.7-1,1.2-1.8,1.5s-1.8,0.5-3,0.5
		C450.3,350,449.3,349.8,448.2,349.5z"/>
	<path d="M464.3,349.2c-1.2-0.7-2-1.5-2.7-2.5c-0.7-1.2-1-2.3-1-3.7c0-1.3,0.3-2.5,1-3.7s1.5-2,2.7-2.5c1.2-0.7,2.3-1,3.9-1
		c1.3,0,2.7,0.3,3.9,1c1.2,0.7,2,1.5,2.7,2.5c0.7,1.2,1,2.3,1,3.7c0,1.3-0.3,2.5-1,3.7s-1.5,2-2.7,2.5s-2.3,1-3.9,1
		C466.7,350,465.5,349.7,464.3,349.2z M470.9,347.5c0.8-0.5,1.5-1.2,2-2s0.7-1.7,0.7-2.8c0-1-0.2-2-0.7-2.7c-0.5-0.8-1.2-1.5-2-2
		s-1.7-0.7-2.8-0.7s-2,0.2-2.8,0.7s-1.5,1.2-2,2s-0.7,1.7-0.7,2.7s0.2,2,0.7,2.8s1.2,1.5,2,2s1.8,0.7,2.8,0.7S470,348,470.9,347.5z"
		/>
	<path d="M492.8,335.8v14.1h-1.7l-8.4-10.6v10.6h-2v-14.1h1.7l8.4,10.6v-10.6H492.8z"/>
	<path d="M500,349.5c-1-0.3-1.7-0.8-2.3-1.3l0.7-1.5c0.5,0.5,1.2,0.8,2,1.2s1.7,0.5,2.5,0.5c1.2,0,2-0.2,2.7-0.7
		c0.5-0.3,0.8-0.8,0.8-1.5c0-0.5-0.2-0.8-0.5-1.2c-0.3-0.3-0.7-0.5-1.2-0.7s-1.2-0.3-2-0.5c-1-0.3-1.8-0.5-2.5-0.8s-1.2-0.7-1.7-1.2
		s-0.7-1.2-0.7-2.2c0-0.7,0.2-1.5,0.7-2c0.3-0.7,1-1,1.8-1.5c0.8-0.3,1.8-0.5,3-0.5c0.8,0,1.7,0.2,2.5,0.3s1.5,0.5,2,1l-0.7,1.7
		c-0.7-0.3-1.2-0.7-1.8-0.8c-0.7-0.2-1.3-0.3-2-0.3c-1.2,0-2,0.2-2.5,0.7s-0.8,1-0.8,1.7c0,0.5,0.2,0.8,0.5,1.2
		c0.3,0.3,0.7,0.5,1.2,0.7s1.2,0.3,2,0.5c1,0.3,1.8,0.5,2.5,0.8s1.2,0.7,1.7,1.2s0.7,1.2,0.7,2.2c0,0.7-0.2,1.3-0.7,2
		c-0.3,0.7-1,1.2-1.8,1.5s-1.8,0.5-3,0.5C502.1,350,501.1,349.8,500,349.5z"/>
	<path d="M523,337.6v4.9h7v1.7h-7v5.7h-2v-14.1h9.9v1.7L523,337.6L523,337.6z"/>
	<path d="M535.7,335.8h2v14.1h-2V335.8z"/>
	<path d="M553.3,349.8l-3-4.4c-0.3,0-0.7,0-0.8,0H546v4.4h-2v-14.1h5.5c1.8,0,3.2,0.5,4.4,1.3c1,0.8,1.5,2,1.5,3.5
		c0,1-0.3,2-0.8,2.8s-1.3,1.3-2.3,1.7l3.4,4.7h-2.4V349.8z M552.3,343.1c0.7-0.5,1-1.3,1-2.3s-0.3-1.8-1-2.3s-1.7-0.8-2.8-0.8h-3.4
		v6.4h3.4C550.7,344,551.7,343.6,552.3,343.1z"/>
	<path d="M573.6,349.8v-10.2l-5,8.5h-1l-5-8.5v10.2h-2v-14.1h1.7l5.9,9.9l5.9-9.9h1.7v14.1H573.6z"/>
</g>
</svg>
