<?xml version="1.0" encoding="UTF-8"?><svg id="a" xmlns="http://www.w3.org/2000/svg" viewBox="0 0 1226.51 330.66"><g><path d="m211.23,157.32c0-6.43-.86-10.96-2.57-13.6-1.71-2.63-4.97-3.95-9.79-3.95-6.42,0-12.11,2.64-17.09,7.91-4.97,5.27-7.46,10.01-7.46,14.23v56.28h-11.23v-60.87c0-6.43-.86-10.96-2.57-13.6-1.71-2.63-5.35-3.95-10.91-3.95s-10.83,2.53-15.8,7.59c-4.98,5.06-7.68,9.75-8.1,14.07v56.76h-11.23v-79.05h11.23v17.87c1.71-4.53,4.87-8.75,9.47-12.65s9.73-5.85,15.4-5.85,10.19.5,13.56,1.5,5.75,2.56,7.14,4.66c1.39,2.11,2.25,3.95,2.57,5.53s.48,3.79.48,6.64c1.71-4.53,4.81-8.72,9.31-12.57,4.49-3.85,9.31-5.77,14.44-5.77s9.25.42,12.36,1.26c3.1.85,5.43,1.79,6.98,2.85,1.55,1.05,2.73,2.58,3.53,4.59.8,2,1.26,3.64,1.36,4.9.11,1.26.16,3.06.16,5.38v49.49c0,3.06.61,5.4,1.85,7.03,1.23,1.63,2.49,2.51,3.77,2.61l1.76.32h4.97v1.26h-9.79c-4.39,0-7.73-.95-10.03-2.85-2.3-1.9-3.51-3.79-3.61-5.69l-.16-2.69v-49.65h0Z"/><path d="m259.7,121.43c-1.28-1.26-1.92-2.85-1.92-4.74s.64-3.5,1.92-4.82,2.89-1.98,4.81-1.98,3.55.66,4.89,1.98,2.01,2.93,2.01,4.82-.67,3.48-2.01,4.74c-1.34,1.27-2.97,1.9-4.89,1.9s-3.53-.63-4.81-1.9h0Zm12.84,96.76c-4.39,0-7.73-.95-10.03-2.85-2.3-1.9-3.51-3.79-3.61-5.69l-.16-2.69v-67.83h11.23v67.83c0,3.06.61,5.4,1.84,7.03s2.43,2.51,3.61,2.61l1.92.32h4.97v1.26h-9.79.02Z"/><path d="m314.91,140.4v-1.26h55.68v1.26l-48.46,76.52h38.35c7.38,0,11.82-2.11,13.32-6.32l.96.47c0,.42-.38,1.13-1.12,2.13-.75,1-1.6,1.82-2.57,2.45-2.57,1.69-6.1,2.53-10.59,2.53h-49.58v-1.26l48.46-76.52h-44.45Z"/><path d="m433.99,145.94v-3.32c-4.81,1.9-9.2,5.72-13.16,11.46-3.96,5.75-6.05,11.15-6.26,16.21v47.9h-11.23v-79.05h11.23v25.14c1.71-6.11,4.97-11.88,9.79-17.31,4.81-5.43,10.27-8.25,16.37-8.46h.64c2.14,0,3.93.71,5.38,2.13,1.44,1.42,2.17,3.19,2.17,5.3s-.72,3.85-2.17,5.22c-1.44,1.37-3.24,2.06-5.38,2.06s-3.91-.69-5.29-2.06c-1.39-1.37-2.09-3.11-2.09-5.22Z"/><path d="m538.94,218.19c-7.28,0-12.25-1.37-14.92-4.11-2.46-2.32-3.69-4.32-3.69-6.01v-3.32c-5.24,9.38-13.64,14.07-25.19,14.07-13.48,0-21.13-6.01-22.94-18.02-.22-1.27-.32-2.55-.32-3.87s.21-2.77.64-4.35c.43-1.58,1.66-3.32,3.69-5.22,4.06-3.79,13-6.11,26.8-6.96,3.42-.32,6.58-.47,9.47-.47s5.51.11,7.86.32v-26.25c-.22-.1-.22-.61,0-1.5.21-.89.02-2.06-.56-3.48-.59-1.42-1.36-2.82-2.33-4.19-.96-1.37-2.68-2.55-5.13-3.56-2.46-1-5.67-1.5-9.63-1.5s-8.58.71-13.88,2.13c-5.29,1.42-9.17,2.82-11.63,4.19l-.64-1.11c9.52-4.32,19.2-6.48,29.04-6.48,11.02,0,18.29,1.95,21.82,5.85,2.78,3.06,4.17,6.27,4.17,9.64v52.96c0,3.06.61,5.4,1.85,7.03,1.23,1.63,2.49,2.51,3.77,2.61l1.77.32h4.97v1.26h-4.97l-.02.02Zm-41.24-.63c5.67,0,10.78-1.92,15.32-5.77,4.55-3.85,6.98-7.56,7.3-11.15v-19.13c-2.89-.21-5.8-.32-8.74-.32s-5.86.16-8.74.47c-8.13.95-13.43,2.74-15.89,5.38-2.46,2.64-3.69,6.27-3.69,10.91,0,.85.05,1.79.16,2.85.96,11.17,5.72,16.76,14.28,16.76Z"/><path d="m636.67,218.19c-4.39,0-7.73-.95-10.03-2.85-2.3-1.9-3.51-3.79-3.61-5.69l-.16-2.69v-49.65c0-8.32-2.25-13.65-6.74-15.97-2.14-1.05-4.87-1.58-8.18-1.58-6.63,0-12.6,2.66-17.89,7.98-5.29,5.32-7.94,10.09-7.94,14.31v56.13h-11.23v-118.41h11.23v57.39c1.71-4.53,4.97-8.78,9.79-12.73,4.81-3.95,10.21-5.93,16.21-5.93,10.37,0,17.3,1.77,20.78,5.3,3.48,3.53,5.22,8.09,5.22,13.68v49.49c0,3.06.61,5.4,1.85,7.03,1.23,1.63,2.43,2.51,3.61,2.61l1.92.32h4.97v1.26h-9.8Z"/><path d="m675.36,121.43c-1.28-1.26-1.92-2.85-1.92-4.74s.64-3.5,1.92-4.82c1.28-1.32,2.89-1.98,4.81-1.98s3.55.66,4.89,1.98,2.01,2.93,2.01,4.82-.67,3.48-2.01,4.74c-1.34,1.27-2.97,1.9-4.89,1.9s-3.53-.63-4.81-1.9Zm12.84,96.76c-4.39,0-7.73-.95-10.03-2.85-2.3-1.9-3.51-3.79-3.61-5.69l-.16-2.69v-67.83h11.23v67.83c0,3.06.61,5.4,1.84,7.03,1.23,1.63,2.43,2.51,3.61,2.61l1.92.32h4.97v1.26h-9.79.02Z"/></g><g><path d="m765.16,165.08c-1.71-.56-3.06-1.32-4.03-2.22l1.29-2.73c.93.85,2.13,1.51,3.59,2.04,1.46.53,2.96.79,4.49.79,2.03,0,3.54-.35,4.54-1.04,1-.69,1.5-1.6,1.5-2.75,0-.85-.28-1.51-.83-2.04-.55-.53-1.23-.93-2.03-1.22-.81-.28-1.94-.6-3.42-.95-1.85-.44-3.33-.88-4.46-1.32s-2.1-1.13-2.91-2.04-1.22-2.17-1.22-3.73c0-1.3.35-2.48,1.04-3.54s1.73-1.88,3.13-2.52,3.13-.95,5.21-.95c1.44,0,2.87.19,4.26.56,1.41.37,2.61.92,3.61,1.6l-1.16,2.8c-1.02-.65-2.11-1.14-3.29-1.5-1.16-.33-2.31-.51-3.43-.51-1.99,0-3.47.37-4.46,1.07-.99.72-1.48,1.66-1.48,2.8,0,.85.28,1.51.85,2.04s1.25.93,2.08,1.23,1.95.6,3.38.93c1.85.44,3.33.88,4.44,1.34s2.08,1.13,2.89,2.03,1.22,2.13,1.22,3.68c0,1.29-.35,2.45-1.06,3.52-.7,1.06-1.76,1.9-3.19,2.52s-3.17.93-5.25.93c-1.85,0-3.63-.28-5.34-.86l.02.02Z"/><path d="m815.1,162.61v3.05h-17.77v-24.49h17.27v3.05h-13.79v7.52h12.27v2.98h-12.27v7.91h14.28Z"/><path d="m849.38,165.66l-5.28-7.52c-.65.05-1.16.07-1.53.07h-6.06v7.45h-3.5v-24.49h9.54c3.17,0,5.67.76,7.48,2.27,1.81,1.51,2.73,3.61,2.73,6.27,0,1.88-.48,3.5-1.41,4.82-.93,1.34-2.25,2.29-3.98,2.91l5.81,8.22h-3.82.02Zm-1.85-11.85c1.16-.95,1.74-2.32,1.74-4.09s-.58-3.13-1.74-4.07c-1.16-.95-2.85-1.43-5.07-1.43h-5.95v11.02h5.95c2.22,0,3.91-.48,5.07-1.43v-.02Z"/><path d="m891.95,141.18l-10.74,24.49h-3.47l-10.78-24.49h3.79l8.82,20.11,8.89-20.11h3.5-.02Z"/><path d="m907.32,141.18h3.5v24.49h-3.5v-24.49Z"/><path d="m934.72,164.32c-1.97-1.09-3.52-2.57-4.63-4.47-1.13-1.9-1.67-4.03-1.67-6.43s.56-4.51,1.67-6.41,2.68-3.4,4.65-4.47c1.99-1.09,4.19-1.62,6.64-1.62,1.92,0,3.66.32,5.25.97,1.58.63,2.94,1.58,4.07,2.85l-2.27,2.2c-1.85-1.94-4.14-2.91-6.89-2.91-1.81,0-3.47.41-4.93,1.23-1.46.81-2.62,1.94-3.45,3.38-.83,1.43-1.25,3.05-1.25,4.81s.42,3.38,1.25,4.81,1.97,2.55,3.45,3.38c1.48.81,3.12,1.23,4.93,1.23,2.73,0,5.02-.99,6.89-2.94l2.27,2.2c-1.13,1.25-2.48,2.22-4.09,2.87s-3.35.99-5.27.99c-2.45,0-4.67-.55-6.62-1.62v-.05Z"/><path d="m985.71,162.61v3.05h-17.77v-24.49h17.27v3.05h-13.79v7.52h12.27v2.98h-12.27v7.91h14.28Z"/><path d="m1005.42,165.08c-1.71-.56-3.06-1.32-4.03-2.22l1.29-2.73c.93.85,2.13,1.51,3.59,2.04,1.46.53,2.96.79,4.49.79,2.03,0,3.54-.35,4.54-1.04,1-.69,1.5-1.6,1.5-2.75,0-.85-.28-1.51-.83-2.04-.55-.53-1.23-.93-2.03-1.22-.81-.28-1.94-.6-3.42-.95-1.85-.44-3.33-.88-4.46-1.32-1.13-.44-2.1-1.13-2.91-2.04s-1.22-2.17-1.22-3.73c0-1.3.35-2.48,1.04-3.54.69-1.06,1.73-1.88,3.13-2.52s3.13-.95,5.21-.95c1.44,0,2.87.19,4.26.56,1.41.37,2.61.92,3.61,1.6l-1.16,2.8c-1.02-.65-2.11-1.14-3.29-1.5-1.16-.33-2.31-.51-3.43-.51-1.99,0-3.47.37-4.46,1.07-.99.72-1.48,1.66-1.48,2.8,0,.85.28,1.51.85,2.04s1.25.93,2.08,1.23,1.95.6,3.38.93c1.85.44,3.33.88,4.44,1.34s2.08,1.13,2.89,2.03,1.22,2.13,1.22,3.68c0,1.29-.35,2.45-1.06,3.52-.7,1.06-1.76,1.9-3.19,2.52s-3.17.93-5.25.93c-1.85,0-3.63-.28-5.34-.86l.02.02Z"/></g><g><path d="m764.63,197.04v8.54h12.27v3.01h-12.27v9.9h-3.5v-24.49h17.27v3.05h-13.79.02Z"/><path d="m795.59,194.01h3.5v24.49h-3.5v-24.49Z"/><path d="m839.74,194.01v24.49h-2.87l-14.69-18.26v18.26h-3.5v-24.49h2.87l14.69,18.26v-18.26h3.5Z"/><path d="m874.94,212.37h-13.01l-2.69,6.13h-3.61l11.09-24.49h3.47l11.13,24.49h-3.68l-2.69-6.13Zm-1.23-2.8l-5.28-11.99-5.28,11.99h10.57Z"/><path d="m918.24,194.01v24.49h-2.87l-14.69-18.26v18.26h-3.5v-24.49h2.87l14.69,18.26v-18.26h3.5Z"/><path d="m942.15,217.15c-1.97-1.09-3.52-2.57-4.63-4.47s-1.67-4.03-1.67-6.43.56-4.51,1.67-6.41,2.68-3.4,4.65-4.47c1.99-1.09,4.19-1.62,6.64-1.62,1.92,0,3.66.32,5.25.97,1.58.63,2.94,1.58,4.07,2.85l-2.27,2.2c-1.85-1.94-4.14-2.91-6.89-2.91-1.81,0-3.47.41-4.93,1.23-1.46.81-2.62,1.94-3.45,3.38-.83,1.43-1.25,3.05-1.25,4.81s.42,3.38,1.25,4.81,1.97,2.55,3.45,3.38c1.48.81,3.12,1.23,4.93,1.23,2.73,0,5.02-.99,6.89-2.94l2.27,2.2c-1.13,1.25-2.48,2.22-4.09,2.87s-3.35.99-5.27.99c-2.45,0-4.67-.55-6.62-1.62v-.05Z"/><path d="m975.38,194.01h3.5v24.49h-3.5v-24.49Z"/><path d="m1016.23,215.44v3.05h-17.77v-24.49h17.27v3.05h-13.79v7.52h12.27v2.98h-12.27v7.91h14.28Z"/><path d="m1050.51,218.49l-5.28-7.52c-.65.05-1.16.07-1.53.07h-6.06v7.45h-3.5v-24.49h9.54c3.17,0,5.67.76,7.48,2.27,1.81,1.51,2.73,3.61,2.73,6.27,0,1.88-.48,3.5-1.41,4.82-.93,1.34-2.25,2.29-3.98,2.91l5.81,8.22h-3.82.02Zm-1.85-11.85c1.16-.95,1.74-2.32,1.74-4.09s-.58-3.13-1.74-4.07c-1.16-.95-2.85-1.43-5.07-1.43h-5.95v11.02h5.95c2.22,0,3.91-.48,5.07-1.43v-.02Z"/><path d="m1073.62,217.9c-1.71-.56-3.06-1.32-4.03-2.22l1.29-2.73c.93.85,2.13,1.51,3.59,2.04,1.46.53,2.96.79,4.49.79,2.03,0,3.54-.35,4.54-1.04,1-.69,1.5-1.6,1.5-2.75,0-.85-.28-1.51-.83-2.04-.55-.53-1.23-.93-2.03-1.22-.81-.28-1.94-.6-3.42-.95-1.85-.44-3.33-.88-4.46-1.32s-2.1-1.13-2.91-2.04-1.22-2.17-1.22-3.73c0-1.3.35-2.48,1.04-3.54s1.73-1.88,3.13-2.52c1.41-.63,3.13-.95,5.21-.95,1.44,0,2.87.19,4.26.56,1.41.37,2.61.92,3.61,1.6l-1.16,2.8c-1.02-.65-2.11-1.14-3.29-1.5-1.16-.33-2.31-.51-3.43-.51-1.99,0-3.47.37-4.46,1.07-.99.72-1.48,1.66-1.48,2.8,0,.85.28,1.51.85,2.04s1.25.93,2.08,1.23,1.95.6,3.38.93c1.85.44,3.33.88,4.44,1.34s2.08,1.13,2.89,2.03,1.22,2.13,1.22,3.68c0,1.29-.35,2.45-1.06,3.52-.7,1.06-1.76,1.9-3.19,2.52s-3.17.93-5.25.93c-1.85,0-3.63-.28-5.34-.86l.02.02Z"/></g></svg>