<?xml version="1.0" encoding="utf-8"?>
<!-- Generator: Adobe Illustrator 27.4.1, SVG Export Plug-In . SVG Version: 6.00 Build 0)  -->
<svg version="1.1" id="Calque_1" xmlns="http://www.w3.org/2000/svg" xmlns:xlink="http://www.w3.org/1999/xlink" x="0px" y="0px"
	 viewBox="0 0 784 487" style="enable-background:new 0 0 784 487;" xml:space="preserve">
<style type="text/css">
	.st0{display:none;enable-background:new    ;}
	.st1{font-family:'Montserrat-Medium';}
	.st2{font-size:20px;}
	.st3{letter-spacing:6;}
</style>
<text transform="matrix(1 0 0 1 214.9355 300.1377)" class="st0 st1 st2 st3">SERVICES FINANCIERS</text>
<g>
	<path d="M216.8,299.8c-1-0.3-1.8-0.8-2.3-1.3l0.7-1.6c0.5,0.5,1.2,0.9,2.1,1.2c0.8,0.3,1.7,0.5,2.6,0.5c1.2,0,2-0.2,2.6-0.6
		s0.9-0.9,0.9-1.6c0-0.5-0.2-0.9-0.5-1.2s-0.7-0.5-1.2-0.7s-1.1-0.3-2-0.5c-1.1-0.3-1.9-0.5-2.5-0.8s-1.2-0.6-1.7-1.2
		c-0.5-0.5-0.7-1.2-0.7-2.1c0-0.7,0.2-1.4,0.6-2c0.4-0.6,1-1.1,1.8-1.4s1.8-0.5,3-0.5c0.8,0,1.6,0.1,2.4,0.3s1.5,0.5,2.1,0.9
		l-0.7,1.6c-0.6-0.4-1.2-0.7-1.9-0.8c-0.7-0.2-1.3-0.3-2-0.3c-1.1,0-2,0.2-2.5,0.6s-0.8,0.9-0.8,1.6c0,0.5,0.2,0.9,0.5,1.2
		c0.3,0.3,0.7,0.5,1.2,0.7s1.1,0.3,1.9,0.5c1.1,0.3,1.9,0.5,2.5,0.8s1.2,0.6,1.7,1.2c0.5,0.5,0.7,1.2,0.7,2.1c0,0.7-0.2,1.4-0.6,2
		c-0.4,0.6-1,1.1-1.8,1.4c-0.8,0.4-1.8,0.5-3,0.5C218.8,300.3,217.8,300.1,216.8,299.8z"/>
	<path d="M245.2,298.4v1.7H235v-14h9.9v1.7H237v4.3h7v1.7h-7v4.5L245.2,298.4L245.2,298.4z"/>
	<path d="M264.6,300.1l-3-4.3c-0.4,0-0.7,0-0.9,0h-3.5v4.3h-2v-14h5.5c1.8,0,3.2,0.4,4.3,1.3c1,0.9,1.6,2.1,1.6,3.6
		c0,1.1-0.3,2-0.8,2.8s-1.3,1.3-2.3,1.7l3.3,4.7h-2.2V300.1z M263.5,293.4c0.7-0.5,1-1.3,1-2.3s-0.3-1.8-1-2.3s-1.6-0.8-2.9-0.8
		h-3.4v6.3h3.4C261.9,294.2,262.9,293.9,263.5,293.4z"/>
	<path d="M288.7,286.1l-6.1,14h-2l-6.2-14h2.2l5,11.5l5.1-11.5H288.7z"/>
	<path d="M297.3,286.1h2v14h-2V286.1z"/>
	<path d="M312.8,299.4c-1.1-0.6-2-1.5-2.7-2.6s-1-2.3-1-3.7s0.3-2.6,1-3.7s1.5-1.9,2.7-2.6c1.1-0.6,2.4-0.9,3.8-0.9
		c1.1,0,2.1,0.2,3,0.5c0.9,0.4,1.7,0.9,2.3,1.6l-1.3,1.3c-1.1-1.1-2.4-1.7-3.9-1.7c-1,0-2,0.2-2.8,0.7s-1.5,1.1-2,1.9
		s-0.7,1.7-0.7,2.8c0,1,0.2,1.9,0.7,2.8s1.1,1.5,2,1.9c0.8,0.5,1.8,0.7,2.8,0.7c1.6,0,2.9-0.6,3.9-1.7l1.3,1.3
		c-0.6,0.7-1.4,1.3-2.3,1.6c-0.9,0.4-1.9,0.6-3,0.6C315.2,300.3,313.9,300,312.8,299.4z"/>
	<path d="M341.7,298.4v1.7h-10.2v-14h9.9v1.7h-7.9v4.3h7v1.7h-7v4.5L341.7,298.4L341.7,298.4z"/>
	<path d="M352.8,299.8c-1-0.3-1.8-0.8-2.3-1.3l0.7-1.6c0.5,0.5,1.2,0.9,2.1,1.2c0.8,0.3,1.7,0.5,2.6,0.5c1.2,0,2-0.2,2.6-0.6
		s0.9-0.9,0.9-1.6c0-0.5-0.2-0.9-0.5-1.2s-0.7-0.5-1.2-0.7s-1.1-0.3-2-0.5c-1.1-0.3-1.9-0.5-2.5-0.8s-1.2-0.6-1.7-1.2
		c-0.5-0.5-0.7-1.2-0.7-2.1c0-0.7,0.2-1.4,0.6-2s1-1.1,1.8-1.4s1.8-0.5,3-0.5c0.8,0,1.6,0.1,2.4,0.3s1.5,0.5,2.1,0.9l-0.7,1.6
		c-0.6-0.4-1.2-0.7-1.9-0.8c-0.7-0.2-1.3-0.3-2-0.3c-1.1,0-2,0.2-2.5,0.6s-0.8,0.9-0.8,1.6c0,0.5,0.2,0.9,0.5,1.2
		c0.3,0.3,0.7,0.5,1.2,0.7s1.1,0.3,1.9,0.5c1.1,0.3,1.9,0.5,2.5,0.8s1.2,0.6,1.7,1.2c0.5,0.5,0.7,1.2,0.7,2.1c0,0.7-0.2,1.4-0.6,2
		s-1,1.1-1.8,1.4c-0.8,0.4-1.8,0.5-3,0.5C354.8,300.3,353.8,300.1,352.8,299.8z"/>
	<path d="M385.2,287.9v4.9h7v1.7h-7v5.7h-2v-14h9.9v1.7L385.2,287.9L385.2,287.9z"/>
	<path d="M402.7,286.1h2v14h-2V286.1z"/>
	<path d="M427.7,286.1v14h-1.6l-8.4-10.4v10.4h-2v-14h1.6l8.4,10.4v-10.4H427.7z"/>
	<path d="M447.6,296.6h-7.4l-1.5,3.5h-2.1l6.3-14h2l6.4,14h-2.1L447.6,296.6z M446.9,295l-3-6.9l-3,6.9H446.9z"/>
	<path d="M472.2,286.1v14h-1.6l-8.4-10.4v10.4h-2v-14h1.6l8.4,10.4v-10.4H472.2z"/>
	<path d="M485.6,299.4c-1.1-0.6-2-1.5-2.7-2.6s-1-2.3-1-3.7s0.3-2.6,1-3.7s1.5-1.9,2.7-2.6c1.1-0.6,2.4-0.9,3.8-0.9
		c1.1,0,2.1,0.2,3,0.5c0.9,0.4,1.7,0.9,2.3,1.6l-1.3,1.3c-1.1-1.1-2.4-1.7-3.9-1.7c-1,0-2,0.2-2.8,0.7s-1.5,1.1-2,1.9
		s-0.7,1.7-0.7,2.8c0,1,0.2,1.9,0.7,2.8s1.1,1.5,2,1.9c0.8,0.5,1.8,0.7,2.8,0.7c1.6,0,2.9-0.6,3.9-1.7l1.3,1.3
		c-0.6,0.7-1.4,1.3-2.3,1.6c-0.9,0.4-1.9,0.6-3,0.6C488,300.3,486.8,300,485.6,299.4z"/>
	<path d="M504.4,286.1h2v14h-2V286.1z"/>
	<path d="M527.6,298.4v1.7h-10.2v-14h9.9v1.7h-7.9v4.3h7v1.7h-7v4.5L527.6,298.4L527.6,298.4z"/>
	<path d="M547,300.1l-3-4.3c-0.4,0-0.7,0-0.9,0h-3.5v4.3h-2v-14h5.5c1.8,0,3.2,0.4,4.3,1.3c1,0.9,1.6,2.1,1.6,3.6
		c0,1.1-0.3,2-0.8,2.8s-1.3,1.3-2.3,1.7l3.3,4.7H547V300.1z M545.9,293.4c0.7-0.5,1-1.3,1-2.3s-0.3-1.8-1-2.3s-1.6-0.8-2.9-0.8h-3.4
		v6.3h3.4C544.3,294.2,545.3,293.9,545.9,293.4z"/>
	<path d="M560,299.8c-1-0.3-1.8-0.8-2.3-1.3l0.7-1.6c0.5,0.5,1.2,0.9,2.1,1.2c0.8,0.3,1.7,0.5,2.6,0.5c1.2,0,2-0.2,2.6-0.6
		s0.9-0.9,0.9-1.6c0-0.5-0.2-0.9-0.5-1.2s-0.7-0.5-1.2-0.7s-1.1-0.3-2-0.5c-1.1-0.3-1.9-0.5-2.5-0.8s-1.2-0.6-1.7-1.2
		c-0.5-0.5-0.7-1.2-0.7-2.1c0-0.7,0.2-1.4,0.6-2c0.4-0.6,1-1.1,1.8-1.4s1.8-0.5,3-0.5c0.8,0,1.6,0.1,2.4,0.3s1.5,0.5,2.1,0.9
		l-0.7,1.6c-0.6-0.4-1.2-0.7-1.9-0.8c-0.7-0.2-1.3-0.3-2-0.3c-1.1,0-2,0.2-2.5,0.6s-0.8,0.9-0.8,1.6c0,0.5,0.2,0.9,0.5,1.2
		c0.3,0.3,0.7,0.5,1.2,0.7s1.1,0.3,1.9,0.5c1.1,0.3,1.9,0.5,2.5,0.8s1.2,0.6,1.7,1.2c0.5,0.5,0.7,1.2,0.7,2.1c0,0.7-0.2,1.4-0.6,2
		c-0.4,0.6-1,1.1-1.8,1.4c-0.8,0.4-1.8,0.5-3,0.5C562,300.3,561,300.1,560,299.8z"/>
	<path d="M227.6,375.6c-0.8-0.5-1.3-1-1.8-1.7c-0.4-0.8-0.7-1.6-0.7-2.5c0-0.9,0.2-1.7,0.7-2.5c0.4-0.8,1-1.4,1.8-1.7
		c0.8-0.4,1.6-0.7,2.6-0.7c0.8,0,1.5,0.1,2,0.3s1.1,0.6,1.6,1.1l-0.9,0.9c-0.7-0.8-1.6-1.1-2.7-1.1c-0.7,0-1.4,0.1-1.9,0.4
		c-0.6,0.3-1,0.8-1.3,1.4c-0.3,0.6-0.4,1.1-0.4,1.8c0,0.7,0.1,1.4,0.4,1.9c0.3,0.6,0.8,1,1.3,1.4c0.6,0.3,1.2,0.4,1.9,0.4
		c1,0,1.9-0.3,2.7-1.1l0.9,0.9c-0.4,0.4-0.9,0.9-1.6,1.1c-0.6,0.2-1.3,0.3-2,0.3C229.2,376.2,228.4,375.9,227.6,375.6z"/>
	<path d="M242.8,373.7h-5.1l-1,2.4h-1.4l4.3-9.5h1.4l4.3,9.5h-1.5L242.8,373.7z M242.3,372.7l-2-4.6l-2,4.6H242.3z"/>
	<path d="M255.7,372c0.3,0.5,0.5,0.9,0.5,1.6c0,0.8-0.3,1.5-0.9,1.9c-0.6,0.5-1.5,0.7-2.7,0.7h-4.5v-9.5h4.3c1.1,0,1.9,0.2,2.5,0.7
		c0.6,0.4,0.9,1,0.9,1.8c0,0.5-0.1,0.9-0.3,1.2s-0.6,0.7-0.9,0.8C254.9,371.3,255.4,371.7,255.7,372z M249.4,367.7v3h2.8
		c0.7,0,1.2-0.1,1.6-0.3c0.3-0.2,0.6-0.7,0.6-1.1s-0.2-0.9-0.6-1.1c-0.3-0.2-0.9-0.3-1.6-0.3h-2.8V367.7z M254.2,374.6
		c0.3-0.2,0.6-0.7,0.6-1.2c0-1-0.8-1.6-2.4-1.6h-3.1v3.1h3.1C253.2,375.1,253.8,374.9,254.2,374.6z"/>
	<path d="M259.5,366.6h1.4v9.5h-1.4V366.6z"/>
	<path d="M273.3,366.6v9.5h-1.1l-5.6-7.1v7.1h-1.4v-9.5h1.1l5.6,7.1v-7.1H273.3z"/>
	<path d="M284.3,374.9v1.1h-6.9v-9.5h6.6v1.1h-5.3v2.9h4.7v1.1h-4.7v3L284.3,374.9L284.3,374.9z"/>
	<path d="M289.7,367.8h-3.3v-1.1h7.8v1.1h-3.3v8.3h-1.2V367.8z"/>
	<path d="M308.9,374.9v1.1h-6.9v-9.5h6.6v1.1h-5.3v2.9h4.7v1.1h-4.7v3L308.9,374.9L308.9,374.9z"/>
	<path d="M320.6,366.6v9.5h-1.1l-5.6-7.1v7.1h-1.4v-9.5h1.1l5.6,7.1v-7.1H320.6z"/>
	<path d="M335.8,373.7h-5.1l-1,2.4h-1.4l4.3-9.5h1.4l4.3,9.5h-1.5L335.8,373.7z M335.4,372.7l-2-4.6l-2,4.6H335.4z"/>
	<path d="M341.7,375.8c-0.7-0.2-1.1-0.6-1.6-0.9l0.4-1c0.3,0.3,0.8,0.6,1.4,0.8s1.1,0.3,1.7,0.3c0.8,0,1.4-0.1,1.8-0.5
		c0.3-0.2,0.6-0.6,0.6-1c0-0.3-0.1-0.6-0.3-0.8c-0.2-0.2-0.4-0.3-0.8-0.5c-0.3-0.1-0.8-0.2-1.4-0.3c-0.7-0.2-1.2-0.3-1.7-0.6
		c-0.5-0.2-0.8-0.4-1.1-0.8c-0.3-0.3-0.5-0.8-0.5-1.5c0-0.4,0.1-1,0.5-1.4c0.2-0.4,0.7-0.7,1.2-1c0.6-0.2,1.2-0.3,2-0.3
		c0.6,0,1.1,0.1,1.7,0.2c0.6,0.1,1,0.3,1.4,0.7l-0.4,1.1c-0.4-0.2-0.8-0.4-1.2-0.6c-0.4-0.1-0.9-0.2-1.4-0.2c-0.8,0-1.4,0.1-1.7,0.4
		s-0.6,0.7-0.6,1.1c0,0.3,0.1,0.6,0.3,0.8c0.2,0.2,0.4,0.3,0.8,0.5c0.3,0.1,0.8,0.2,1.4,0.3c0.7,0.2,1.2,0.3,1.7,0.6
		c0.5,0.2,0.8,0.5,1.1,0.8c0.3,0.3,0.5,0.8,0.5,1.5c0,0.4-0.1,0.9-0.5,1.4c-0.2,0.4-0.7,0.8-1.2,1s-1.2,0.3-2,0.3
		C343,376.2,342.3,376.1,341.7,375.8z"/>
	<path d="M351.4,375.8c-0.7-0.2-1.1-0.6-1.6-0.9l0.4-1c0.3,0.3,0.8,0.6,1.4,0.8s1.1,0.3,1.7,0.3c0.8,0,1.4-0.1,1.8-0.5
		c0.3-0.2,0.6-0.6,0.6-1c0-0.3-0.1-0.6-0.3-0.8c-0.2-0.2-0.5-0.3-0.8-0.5c-0.3-0.1-0.8-0.2-1.4-0.3c-0.7-0.2-1.2-0.3-1.7-0.6
		c-0.4-0.2-0.8-0.4-1.1-0.8c-0.3-0.3-0.4-0.8-0.4-1.5c0-0.4,0.1-1,0.4-1.4c0.2-0.4,0.7-0.7,1.2-1c0.6-0.2,1.2-0.3,2-0.3
		c0.6,0,1.1,0.1,1.7,0.2c0.6,0.1,1,0.3,1.4,0.7l-0.5,1.1c-0.4-0.2-0.8-0.4-1.2-0.6c-0.5-0.1-0.9-0.2-1.4-0.2c-0.8,0-1.4,0.1-1.7,0.4
		c-0.3,0.3-0.6,0.7-0.6,1.1c0,0.3,0.1,0.6,0.3,0.8c0.2,0.2,0.5,0.3,0.8,0.5c0.3,0.1,0.8,0.2,1.4,0.3c0.7,0.2,1.2,0.3,1.7,0.6
		c0.4,0.2,0.8,0.5,1.1,0.8c0.3,0.3,0.4,0.8,0.4,1.5c0,0.4-0.1,0.9-0.4,1.4c-0.2,0.4-0.7,0.8-1.2,1s-1.2,0.3-2,0.3
		C352.8,376.2,352.1,376.1,351.4,375.8z"/>
	<path d="M361.5,375.2c-0.7-0.7-1-1.8-1-3.1v-5.4h1.4v5.3c0,2,0.9,3,2.7,3c0.9,0,1.6-0.2,2-0.8c0.5-0.4,0.7-1.2,0.7-2.2v-5.3h1.4
		v5.4c0,1.4-0.3,2.4-1,3.1c-0.7,0.7-1.7,1.1-2.9,1.1S362.1,375.8,361.5,375.2z"/>
	<path d="M378.8,376.1l-2-2.9c-0.2,0-0.4,0-0.6,0h-2.4v2.9h-1.4v-9.5h3.7c1.2,0,2.1,0.3,2.9,0.9c0.7,0.6,1,1.4,1,2.4
		c0,0.7-0.2,1.4-0.6,1.9c-0.3,0.6-0.9,0.9-1.6,1.1l2.2,3.1H378.8z M378.1,371.6c0.5-0.3,0.7-0.9,0.7-1.6c0-0.7-0.2-1.2-0.7-1.6
		c-0.4-0.3-1.1-0.6-1.9-0.6h-2.2v4.3h2.2C377,372.1,377.7,371.9,378.1,371.6z"/>
	<path d="M389.7,373.7h-5.1l-1,2.4h-1.4l4.3-9.5h1.4l4.3,9.5h-1.5L389.7,373.7z M389.2,372.7l-2-4.6l-2,4.6H389.2z"/>
	<path d="M403,366.6v9.5h-1.1l-5.6-7.1v7.1h-1.4v-9.5h1.1l5.6,7.1v-7.1H403z"/>
	<path d="M408.8,375.6c-0.8-0.5-1.4-1-1.8-1.7c-0.4-0.8-0.7-1.6-0.7-2.5c0-0.9,0.2-1.7,0.7-2.5c0.5-0.8,1-1.4,1.8-1.7
		c0.8-0.4,1.6-0.7,2.6-0.7c0.8,0,1.5,0.1,2,0.3s1.1,0.6,1.6,1.1l-0.9,0.9c-0.7-0.8-1.6-1.1-2.7-1.1c-0.7,0-1.4,0.1-1.9,0.4
		c-0.6,0.3-1,0.8-1.4,1.4c-0.3,0.6-0.4,1.1-0.4,1.8c0,0.7,0.1,1.4,0.4,1.9c0.3,0.6,0.8,1,1.4,1.4c0.6,0.3,1.2,0.4,1.9,0.4
		c1,0,1.9-0.3,2.7-1.1l0.9,0.9c-0.4,0.4-0.9,0.9-1.6,1.1c-0.6,0.2-1.4,0.3-2,0.3C410.5,376.2,409.6,375.9,408.8,375.6z"/>
	<path d="M425.1,374.9v1.1h-6.9v-9.5h6.6v1.1h-5.3v2.9h4.7v1.1h-4.7v3L425.1,374.9L425.1,374.9z"/>
	<path d="M433.7,366.6h3.9c1,0,1.9,0.2,2.7,0.6c0.8,0.5,1.4,0.9,1.8,1.7c0.4,0.7,0.7,1.6,0.7,2.5c0,0.9-0.2,1.8-0.7,2.5
		c-0.5,0.7-1,1.2-1.8,1.7c-0.8,0.5-1.7,0.6-2.7,0.6h-3.9V366.6z M437.6,374.9c0.8,0,1.5-0.1,2-0.4c0.6-0.3,1-0.7,1.4-1.2
		c0.3-0.6,0.4-1.1,0.4-1.9c0-0.8-0.1-1.4-0.4-1.8c-0.3-0.6-0.8-0.9-1.4-1.2c-0.6-0.3-1.2-0.4-2-0.4H435v7.1L437.6,374.9L437.6,374.9
		z"/>
	<path d="M453,374.9v1.1h-6.9v-9.5h6.6v1.1h-5.3v2.9h4.7v1.1h-4.7v3L453,374.9L453,374.9z"/>
	<path d="M468.1,367.5c0.7,0.6,1,1.4,1,2.4s-0.3,1.8-1,2.4s-1.7,0.9-2.9,0.9h-2.2v2.8h-1.4v-9.4h3.7
		C466.5,366.6,467.4,366.9,468.1,367.5z M467.2,371.6c0.4-0.3,0.7-0.9,0.7-1.6c0-0.7-0.2-1.2-0.7-1.6s-1.1-0.6-1.9-0.6H463v4.3h2.2
		C466.1,372,466.8,371.9,467.2,371.6z"/>
	<path d="M479.4,374.9v1.1h-6.9v-9.5h6.6v1.1h-5.3v2.9h4.7v1.1h-4.7v3L479.4,374.9L479.4,374.9z"/>
	<path d="M489.3,376.1l-2-2.9c-0.2,0-0.5,0-0.6,0h-2.4v2.9H483v-9.5h3.7c1.2,0,2.1,0.3,2.9,0.9c0.7,0.6,1,1.4,1,2.4
		c0,0.7-0.2,1.4-0.6,1.9c-0.3,0.6-0.9,0.9-1.6,1.1l2.2,3.1H489.3z M488.6,371.6c0.4-0.3,0.7-0.9,0.7-1.6c0-0.7-0.2-1.2-0.7-1.6
		c-0.5-0.3-1.1-0.6-1.9-0.6h-2.2v4.3h2.2C487.5,372.1,488.1,371.9,488.6,371.6z"/>
	<path d="M494.8,375.8c-0.7-0.2-1.1-0.6-1.6-0.9l0.5-1c0.3,0.3,0.8,0.6,1.4,0.8s1.1,0.3,1.7,0.3c0.8,0,1.4-0.1,1.8-0.5
		c0.3-0.2,0.6-0.6,0.6-1c0-0.3-0.1-0.6-0.3-0.8c-0.2-0.2-0.4-0.3-0.8-0.5c-0.3-0.1-0.8-0.2-1.4-0.3c-0.7-0.2-1.2-0.3-1.7-0.6
		c-0.4-0.2-0.8-0.4-1.1-0.8c-0.3-0.3-0.4-0.8-0.4-1.5c0-0.4,0.1-1,0.4-1.4c0.2-0.4,0.7-0.7,1.2-1c0.6-0.2,1.2-0.3,2-0.3
		c0.6,0,1.1,0.1,1.7,0.2c0.6,0.1,1,0.3,1.4,0.7l-0.4,1.1c-0.5-0.2-0.8-0.4-1.2-0.6c-0.4-0.1-0.9-0.2-1.4-0.2c-0.8,0-1.4,0.1-1.7,0.4
		s-0.6,0.7-0.6,1.1c0,0.3,0.1,0.6,0.3,0.8c0.2,0.2,0.4,0.3,0.8,0.5c0.3,0.1,0.8,0.2,1.4,0.3c0.7,0.2,1.2,0.3,1.7,0.6
		c0.5,0.2,0.8,0.5,1.1,0.8c0.3,0.3,0.5,0.8,0.5,1.5c0,0.4-0.1,0.9-0.5,1.4c-0.2,0.4-0.7,0.8-1.2,1s-1.2,0.3-2,0.3
		C496.1,376.2,495.4,376.1,494.8,375.8z"/>
	<path d="M505.6,375.6c-0.8-0.5-1.4-1-1.8-1.7c-0.4-0.8-0.7-1.6-0.7-2.5c0-0.9,0.2-1.7,0.7-2.5s1-1.4,1.8-1.7
		c0.8-0.4,1.6-0.7,2.6-0.7c0.9,0,1.8,0.2,2.6,0.7c0.8,0.4,1.4,1,1.8,1.7c0.5,0.8,0.7,1.6,0.7,2.5c0,0.9-0.2,1.7-0.7,2.5
		c-0.5,0.8-1,1.4-1.8,1.7c-0.8,0.3-1.6,0.7-2.6,0.7C507.1,376.2,506.2,375.9,505.6,375.6z M510,374.5c0.6-0.3,1-0.8,1.4-1.4
		c0.3-0.6,0.4-1.1,0.4-1.9c0-0.7-0.1-1.4-0.4-1.8c-0.3-0.6-0.8-1-1.4-1.4s-1.1-0.4-1.9-0.4s-1.4,0.1-1.9,0.4s-1,0.8-1.4,1.4
		c-0.3,0.6-0.4,1.1-0.4,1.8s0.1,1.4,0.4,1.9c0.3,0.6,0.8,1,1.4,1.4c0.6,0.3,1.2,0.4,1.9,0.4S509.4,374.8,510,374.5z"/>
	<path d="M524.7,366.6v9.5h-1.1l-5.6-7.1v7.1h-1.4v-9.5h1.1l5.6,7.1v-7.1H524.7z"/>
	<path d="M537,366.6v9.5h-1.1l-5.6-7.1v7.1h-1.4v-9.5h1.1l5.6,7.1v-7.1H537z"/>
	<path d="M548,374.9v1.1h-6.9v-9.5h6.6v1.1h-5.3v2.9h4.7v1.1h-4.7v3L548,374.9L548,374.9z"/>
	<path d="M552.3,375.8c-0.7-0.2-1.1-0.6-1.6-0.9l0.5-1c0.3,0.3,0.8,0.6,1.4,0.8s1.1,0.3,1.7,0.3c0.8,0,1.3-0.1,1.8-0.5
		c0.3-0.2,0.6-0.6,0.6-1c0-0.3-0.1-0.6-0.3-0.8c-0.2-0.2-0.5-0.3-0.8-0.5c-0.3-0.1-0.8-0.2-1.4-0.3c-0.7-0.2-1.2-0.3-1.7-0.6
		c-0.5-0.2-0.8-0.4-1.1-0.8c-0.3-0.3-0.5-0.8-0.5-1.5c0-0.4,0.1-1,0.5-1.4c0.2-0.4,0.7-0.7,1.2-1c0.6-0.2,1.2-0.3,2-0.3
		c0.6,0,1.1,0.1,1.7,0.2c0.6,0.1,1,0.3,1.4,0.7l-0.5,1.1c-0.5-0.2-0.8-0.4-1.2-0.6s-0.9-0.2-1.4-0.2c-0.8,0-1.4,0.1-1.7,0.4
		s-0.6,0.7-0.6,1.1c0,0.3,0.1,0.6,0.3,0.8c0.2,0.2,0.5,0.3,0.8,0.5c0.3,0.1,0.8,0.2,1.4,0.3c0.7,0.2,1.2,0.3,1.7,0.6
		c0.5,0.2,0.8,0.5,1.1,0.8c0.3,0.3,0.5,0.8,0.5,1.5c0,0.4-0.1,0.9-0.5,1.4c-0.2,0.4-0.7,0.8-1.2,1s-1.2,0.3-2,0.3
		C553.6,376.2,552.9,376.1,552.3,375.8z"/>
</g>
</svg>
