<?xml version="1.0" encoding="utf-8"?>
<!-- Generator: Adobe Illustrator 27.4.0, SVG Export Plug-In . SVG Version: 6.00 Build 0)  -->
<svg version="1.1" id="Calque_1" xmlns="http://www.w3.org/2000/svg" xmlns:xlink="http://www.w3.org/1999/xlink" x="0px" y="0px"
	 viewBox="0 0 784 487" style="enable-background:new 0 0 784 487;" xml:space="preserve">
<style type="text/css">
	.st0{display:none;enable-background:new    ;}
	.st1{font-family:'Montserrat-Medium';}
	.st2{font-size:20px;}
	.st3{letter-spacing:6;}
</style>
<text transform="matrix(1 0 0 1 214.9355 300.1377)" class="st0 st1 st2 st3">SERVICES FINANCIERS</text>
<g>
	<g>
		<path d="M198.5,203.5c0-6.4-0.9-11-2.6-13.6c-1.7-2.6-5-4-9.8-4c-6.4,0-12.1,2.6-17.1,7.9c-5,5.3-7.5,10-7.5,14.2v56.3h-11.2
			v-60.9c0-6.4-0.9-11-2.6-13.6c-1.7-2.6-5.4-4-10.9-4c-5.6,0-10.8,2.5-15.8,7.6s-7.7,9.8-8.1,14.1v56.8h-11.1v-79.1H113v17.9
			c1.7-4.5,4.9-8.7,9.5-12.6c4.6-3.9,9.7-5.8,15.4-5.8s10.2,0.5,13.6,1.5c3.4,1,5.7,2.6,7.1,4.7c1.4,2.1,2.2,4,2.6,5.5
			c0.3,1.6,0.5,3.8,0.5,6.6c1.7-4.5,4.8-8.7,9.3-12.6c4.5-3.8,9.3-5.8,14.4-5.8c5.1,0,9.3,0.4,12.4,1.3c3.1,0.8,5.4,1.8,7,2.8
			c1.5,1.1,2.7,2.6,3.5,4.6s1.3,3.6,1.4,4.9c0.1,1.3,0.2,3.1,0.2,5.4v49.5c0,3.1,0.6,5.4,1.8,7s2.5,2.5,3.8,2.6l1.8,0.3h5v1.3h-9.8
			c-4.4,0-7.7-0.9-10-2.8s-3.5-3.8-3.6-5.7l-0.2-2.7v-49.6L198.5,203.5L198.5,203.5z"/>
		<path d="M247,167.6c-1.3-1.3-1.9-2.8-1.9-4.7s0.6-3.5,1.9-4.8c1.3-1.3,2.9-2,4.8-2c1.9,0,3.6,0.7,4.9,2c1.3,1.3,2,2.9,2,4.8
			c0,1.9-0.7,3.5-2,4.7c-1.3,1.3-3,1.9-4.9,1.9C249.9,169.5,248.3,168.8,247,167.6z M259.8,264.3c-4.4,0-7.7-0.9-10-2.8
			s-3.5-3.8-3.6-5.7l-0.2-2.7v-67.8h11.2v67.8c0,3.1,0.6,5.4,1.8,7c1.2,1.6,2.4,2.5,3.6,2.6l1.9,0.3h5v1.3H259.8L259.8,264.3z"/>
		<path d="M302.2,186.5v-1.3h55.7v1.3L309.4,263h38.3c7.4,0,11.8-2.1,13.3-6.3l1,0.5c0,0.4-0.4,1.1-1.1,2.1s-1.6,1.8-2.6,2.5
			c-2.6,1.7-6.1,2.5-10.6,2.5h-49.6V263l48.5-76.5H302.2z"/>
		<path d="M421.3,192.1v-3.3c-4.8,1.9-9.2,5.7-13.2,11.5c-4,5.7-6,11.1-6.3,16.2v47.9h-11.2v-79.1h11.2v25.1
			c1.7-6.1,5-11.9,9.8-17.3c4.8-5.4,10.3-8.2,16.4-8.5h0.6c2.1,0,3.9,0.7,5.4,2.1c1.4,1.4,2.2,3.2,2.2,5.3s-0.7,3.8-2.2,5.2
			c-1.4,1.4-3.2,2.1-5.4,2.1c-2.1,0-3.9-0.7-5.3-2.1C422,195.9,421.3,194.2,421.3,192.1z"/>
		<path d="M526.2,264.3c-7.3,0-12.3-1.4-14.9-4.1c-2.5-2.3-3.7-4.3-3.7-6v-3.3c-5.2,9.4-13.6,14.1-25.2,14.1c-13.5,0-21.1-6-22.9-18
			c-0.2-1.3-0.3-2.6-0.3-3.9c0-1.3,0.2-2.8,0.6-4.3c0.4-1.6,1.7-3.3,3.7-5.2c4.1-3.8,13-6.1,26.8-7c3.4-0.3,6.6-0.5,9.5-0.5
			s5.5,0.1,7.9,0.3v-26.2c-0.2-0.1-0.2-0.6,0-1.5s0-2.1-0.6-3.5s-1.4-2.8-2.3-4.2c-1-1.4-2.7-2.6-5.1-3.6c-2.5-1-5.7-1.5-9.6-1.5
			c-4,0-8.6,0.7-13.9,2.1c-5.3,1.4-9.2,2.8-11.6,4.2l-0.6-1.1c9.5-4.3,19.2-6.5,29-6.5c11,0,18.3,2,21.8,5.8
			c2.8,3.1,4.2,6.3,4.2,9.6v53c0,3.1,0.6,5.4,1.8,7s2.5,2.5,3.8,2.6l1.8,0.3h5v1.3L526.2,264.3L526.2,264.3z M485,263.7
			c5.7,0,10.8-1.9,15.3-5.8c4.5-3.8,7-7.6,7.3-11.1v-19.2c-2.9-0.2-5.8-0.3-8.7-0.3c-2.9,0-5.9,0.2-8.7,0.5
			c-8.1,0.9-13.4,2.7-15.9,5.4c-2.5,2.6-3.7,6.3-3.7,10.9c0,0.8,0.1,1.8,0.2,2.8C471.7,258.1,476.4,263.7,485,263.7z"/>
		<path d="M624,264.3c-4.4,0-7.7-0.9-10-2.8s-3.5-3.8-3.6-5.7l-0.2-2.7v-49.6c0-8.3-2.2-13.6-6.7-16c-2.1-1.1-4.9-1.6-8.2-1.6
			c-6.6,0-12.6,2.7-17.9,8c-5.3,5.3-7.9,10.1-7.9,14.3v56.1h-11.2V145.9h11.2v57.4c1.7-4.5,5-8.8,9.8-12.7c4.8-4,10.2-5.9,16.2-5.9
			c10.4,0,17.3,1.8,20.8,5.3s5.2,8.1,5.2,13.7v49.5c0,3.1,0.6,5.4,1.8,7s2.4,2.5,3.6,2.6l1.9,0.3h5v1.3H624V264.3z"/>
		<path d="M662.7,167.6c-1.3-1.3-1.9-2.8-1.9-4.7s0.6-3.5,1.9-4.8c1.3-1.3,2.9-2,4.8-2c1.9,0,3.6,0.7,4.9,2c1.3,1.3,2,2.9,2,4.8
			c0,1.9-0.7,3.5-2,4.7c-1.3,1.3-3,1.9-4.9,1.9C665.5,169.5,663.9,168.8,662.7,167.6z M675.5,264.3c-4.4,0-7.7-0.9-10-2.8
			s-3.5-3.8-3.6-5.7l-0.2-2.7v-67.8h11.2v67.8c0,3.1,0.6,5.4,1.8,7s2.4,2.5,3.6,2.6l1.9,0.3h5v1.3H675.5L675.5,264.3z"/>
	</g>
</g>
</svg>
