<?xml version="1.0" encoding="utf-8"?>
<!-- Generator: Adobe Illustrator 27.4.1, SVG Export Plug-In . SVG Version: 6.00 Build 0)  -->
<svg version="1.1" id="Calque_1" xmlns="http://www.w3.org/2000/svg" xmlns:xlink="http://www.w3.org/1999/xlink" x="0px" y="0px"
	 viewBox="0 0 784 487" style="enable-background:new 0 0 784 487;" xml:space="preserve">
<style type="text/css">
	.st0{display:none;enable-background:new    ;}
	.st1{font-family:'Montserrat-Medium';}
	.st2{font-size:20px;}
	.st3{letter-spacing:6;}
</style>
<text transform="matrix(1 0 0 1 214.9355 300.1377)" class="st0 st1 st2 st3">SERVICES FINANCIERS</text>
<g>
	<path d="M216.8,299.8c-1-0.3-1.8-0.8-2.3-1.3l0.7-1.6c0.5,0.5,1.2,0.9,2.1,1.2c0.8,0.3,1.7,0.5,2.6,0.5c1.2,0,2-0.2,2.6-0.6
		s0.9-0.9,0.9-1.6c0-0.5-0.2-0.9-0.5-1.2s-0.7-0.5-1.2-0.7s-1.1-0.3-2-0.5c-1.1-0.3-1.9-0.5-2.5-0.8s-1.2-0.6-1.7-1.2
		c-0.5-0.5-0.7-1.2-0.7-2.1c0-0.7,0.2-1.4,0.6-2c0.4-0.6,1-1.1,1.8-1.4s1.8-0.5,3-0.5c0.8,0,1.6,0.1,2.4,0.3s1.5,0.5,2.1,0.9
		l-0.7,1.6c-0.6-0.4-1.2-0.7-1.9-0.8c-0.7-0.2-1.3-0.3-2-0.3c-1.1,0-2,0.2-2.5,0.6s-0.8,0.9-0.8,1.6c0,0.5,0.2,0.9,0.5,1.2
		c0.3,0.3,0.7,0.5,1.2,0.7s1.1,0.3,1.9,0.5c1.1,0.3,1.9,0.5,2.5,0.8s1.2,0.6,1.7,1.2c0.5,0.5,0.7,1.2,0.7,2.1c0,0.7-0.2,1.4-0.6,2
		c-0.4,0.6-1,1.1-1.8,1.4c-0.8,0.4-1.8,0.5-3,0.5C218.8,300.3,217.8,300.1,216.8,299.8z"/>
	<path d="M245.2,298.4v1.7H235v-14h9.9v1.7H237v4.3h7v1.7h-7v4.5L245.2,298.4L245.2,298.4z"/>
	<path d="M264.6,300.1l-3-4.3c-0.4,0-0.7,0-0.9,0h-3.5v4.3h-2v-14h5.5c1.8,0,3.2,0.4,4.3,1.3c1,0.9,1.6,2.1,1.6,3.6
		c0,1.1-0.3,2-0.8,2.8s-1.3,1.3-2.3,1.7l3.3,4.7h-2.2V300.1z M263.5,293.4c0.7-0.5,1-1.3,1-2.3s-0.3-1.8-1-2.3s-1.6-0.8-2.9-0.8
		h-3.4v6.3h3.4C261.9,294.2,262.9,293.9,263.5,293.4z"/>
	<path d="M288.7,286.1l-6.1,14h-2l-6.2-14h2.2l5,11.5l5.1-11.5H288.7z"/>
	<path d="M297.3,286.1h2v14h-2V286.1z"/>
	<path d="M312.8,299.4c-1.1-0.6-2-1.5-2.7-2.6s-1-2.3-1-3.7s0.3-2.6,1-3.7s1.5-1.9,2.7-2.6c1.1-0.6,2.4-0.9,3.8-0.9
		c1.1,0,2.1,0.2,3,0.5c0.9,0.4,1.7,0.9,2.3,1.6l-1.3,1.3c-1.1-1.1-2.4-1.7-3.9-1.7c-1,0-2,0.2-2.8,0.7s-1.5,1.1-2,1.9
		s-0.7,1.7-0.7,2.8c0,1,0.2,1.9,0.7,2.8s1.1,1.5,2,1.9c0.8,0.5,1.8,0.7,2.8,0.7c1.6,0,2.9-0.6,3.9-1.7l1.3,1.3
		c-0.6,0.7-1.4,1.3-2.3,1.6c-0.9,0.4-1.9,0.6-3,0.6C315.2,300.3,313.9,300,312.8,299.4z"/>
	<path d="M341.7,298.4v1.7h-10.2v-14h9.9v1.7h-7.9v4.3h7v1.7h-7v4.5L341.7,298.4L341.7,298.4z"/>
	<path d="M352.8,299.8c-1-0.3-1.8-0.8-2.3-1.3l0.7-1.6c0.5,0.5,1.2,0.9,2.1,1.2c0.8,0.3,1.7,0.5,2.6,0.5c1.2,0,2-0.2,2.6-0.6
		s0.9-0.9,0.9-1.6c0-0.5-0.2-0.9-0.5-1.2s-0.7-0.5-1.2-0.7s-1.1-0.3-2-0.5c-1.1-0.3-1.9-0.5-2.5-0.8s-1.2-0.6-1.7-1.2
		c-0.5-0.5-0.7-1.2-0.7-2.1c0-0.7,0.2-1.4,0.6-2s1-1.1,1.8-1.4s1.8-0.5,3-0.5c0.8,0,1.6,0.1,2.4,0.3s1.5,0.5,2.1,0.9l-0.7,1.6
		c-0.6-0.4-1.2-0.7-1.9-0.8c-0.7-0.2-1.3-0.3-2-0.3c-1.1,0-2,0.2-2.5,0.6s-0.8,0.9-0.8,1.6c0,0.5,0.2,0.9,0.5,1.2
		c0.3,0.3,0.7,0.5,1.2,0.7s1.1,0.3,1.9,0.5c1.1,0.3,1.9,0.5,2.5,0.8s1.2,0.6,1.7,1.2c0.5,0.5,0.7,1.2,0.7,2.1c0,0.7-0.2,1.4-0.6,2
		s-1,1.1-1.8,1.4c-0.8,0.4-1.8,0.5-3,0.5C354.8,300.3,353.8,300.1,352.8,299.8z"/>
	<path d="M385.2,287.9v4.9h7v1.7h-7v5.7h-2v-14h9.9v1.7L385.2,287.9L385.2,287.9z"/>
	<path d="M402.7,286.1h2v14h-2V286.1z"/>
	<path d="M427.7,286.1v14h-1.6l-8.4-10.4v10.4h-2v-14h1.6l8.4,10.4v-10.4H427.7z"/>
	<path d="M447.6,296.6h-7.4l-1.5,3.5h-2.1l6.3-14h2l6.4,14h-2.1L447.6,296.6z M446.9,295l-3-6.9l-3,6.9H446.9z"/>
	<path d="M472.2,286.1v14h-1.6l-8.4-10.4v10.4h-2v-14h1.6l8.4,10.4v-10.4H472.2z"/>
	<path d="M485.6,299.4c-1.1-0.6-2-1.5-2.7-2.6s-1-2.3-1-3.7s0.3-2.6,1-3.7s1.5-1.9,2.7-2.6c1.1-0.6,2.4-0.9,3.8-0.9
		c1.1,0,2.1,0.2,3,0.5c0.9,0.4,1.7,0.9,2.3,1.6l-1.3,1.3c-1.1-1.1-2.4-1.7-3.9-1.7c-1,0-2,0.2-2.8,0.7s-1.5,1.1-2,1.9
		s-0.7,1.7-0.7,2.8c0,1,0.2,1.9,0.7,2.8s1.1,1.5,2,1.9c0.8,0.5,1.8,0.7,2.8,0.7c1.6,0,2.9-0.6,3.9-1.7l1.3,1.3
		c-0.6,0.7-1.4,1.3-2.3,1.6c-0.9,0.4-1.9,0.6-3,0.6C488,300.3,486.8,300,485.6,299.4z"/>
	<path d="M504.4,286.1h2v14h-2V286.1z"/>
	<path d="M527.6,298.4v1.7h-10.2v-14h9.9v1.7h-7.9v4.3h7v1.7h-7v4.5L527.6,298.4L527.6,298.4z"/>
	<path d="M547,300.1l-3-4.3c-0.4,0-0.7,0-0.9,0h-3.5v4.3h-2v-14h5.5c1.8,0,3.2,0.4,4.3,1.3c1,0.9,1.6,2.1,1.6,3.6
		c0,1.1-0.3,2-0.8,2.8s-1.3,1.3-2.3,1.7l3.3,4.7H547V300.1z M545.9,293.4c0.7-0.5,1-1.3,1-2.3s-0.3-1.8-1-2.3s-1.6-0.8-2.9-0.8h-3.4
		v6.3h3.4C544.3,294.2,545.3,293.9,545.9,293.4z"/>
	<path d="M560,299.8c-1-0.3-1.8-0.8-2.3-1.3l0.7-1.6c0.5,0.5,1.2,0.9,2.1,1.2c0.8,0.3,1.7,0.5,2.6,0.5c1.2,0,2-0.2,2.6-0.6
		s0.9-0.9,0.9-1.6c0-0.5-0.2-0.9-0.5-1.2s-0.7-0.5-1.2-0.7s-1.1-0.3-2-0.5c-1.1-0.3-1.9-0.5-2.5-0.8s-1.2-0.6-1.7-1.2
		c-0.5-0.5-0.7-1.2-0.7-2.1c0-0.7,0.2-1.4,0.6-2c0.4-0.6,1-1.1,1.8-1.4s1.8-0.5,3-0.5c0.8,0,1.6,0.1,2.4,0.3s1.5,0.5,2.1,0.9
		l-0.7,1.6c-0.6-0.4-1.2-0.7-1.9-0.8c-0.7-0.2-1.3-0.3-2-0.3c-1.1,0-2,0.2-2.5,0.6s-0.8,0.9-0.8,1.6c0,0.5,0.2,0.9,0.5,1.2
		c0.3,0.3,0.7,0.5,1.2,0.7s1.1,0.3,1.9,0.5c1.1,0.3,1.9,0.5,2.5,0.8s1.2,0.6,1.7,1.2c0.5,0.5,0.7,1.2,0.7,2.1c0,0.7-0.2,1.4-0.6,2
		c-0.4,0.6-1,1.1-1.8,1.4c-0.8,0.4-1.8,0.5-3,0.5C562,300.3,561,300.1,560,299.8z"/>
	<path d="M245.8,375.7c-0.7-0.4-1.2-0.9-1.6-1.5c-0.4-0.7-0.6-1.4-0.6-2.2c0-0.8,0.2-1.5,0.6-2.2c0.4-0.7,0.9-1.2,1.6-1.5
		c0.7-0.4,1.4-0.6,2.3-0.6c0.7,0,1.3,0.1,1.8,0.3s1,0.5,1.4,1l-0.8,0.8c-0.6-0.7-1.4-1-2.4-1c-0.6,0-1.2,0.1-1.7,0.4
		s-0.9,0.7-1.2,1.2s-0.4,1-0.4,1.6s0.1,1.2,0.4,1.7s0.7,0.9,1.2,1.2c0.5,0.3,1.1,0.4,1.7,0.4c0.9,0,1.7-0.3,2.4-1l0.8,0.8
		c-0.4,0.4-0.8,0.8-1.4,1c-0.5,0.2-1.2,0.3-1.8,0.3C247.2,376.2,246.5,376,245.8,375.7z"/>
	<path d="M259.3,374h-4.5l-0.9,2.1h-1.2l3.8-8.4h1.2l3.8,8.4h-1.3L259.3,374z M258.9,373.1l-1.8-4.1l-1.8,4.1H258.9z"/>
	<path d="M270.8,372.5c0.3,0.4,0.4,0.8,0.4,1.4c0,0.7-0.3,1.3-0.8,1.7s-1.3,0.6-2.4,0.6h-4v-8.4h3.8c1,0,1.7,0.2,2.2,0.6
		s0.8,0.9,0.8,1.6c0,0.4-0.1,0.8-0.3,1.1s-0.5,0.6-0.8,0.7C270.1,371.9,270.5,372.2,270.8,372.5z M265.2,368.7v2.7h2.5
		c0.6,0,1.1-0.1,1.4-0.3c0.3-0.2,0.5-0.6,0.5-1s-0.2-0.8-0.5-1s-0.8-0.3-1.4-0.3h-2.5V368.7z M269.5,374.8c0.3-0.2,0.5-0.6,0.5-1.1
		c0-0.9-0.7-1.4-2.1-1.4h-2.8v2.8h2.8C268.6,375.2,269.1,375.1,269.5,374.8z"/>
	<path d="M274.2,367.7h1.2v8.4h-1.2V367.7z"/>
	<path d="M286.4,367.7v8.4h-1l-5-6.3v6.3h-1.2v-8.4h1l5,6.3v-6.3H286.4z"/>
	<path d="M296.2,375.1v1h-6.1v-8.4h5.9v1h-4.7v2.6h4.2v1h-4.2v2.7L296.2,375.1L296.2,375.1z"/>
	<path d="M301,368.8h-2.9v-1h6.9v1h-2.9v7.4H301V368.8z"/>
	<path d="M318.1,375.1v1H312v-8.4h5.9v1h-4.7v2.6h4.2v1h-4.2v2.7L318.1,375.1L318.1,375.1z"/>
	<path d="M328.5,367.7v8.4h-1l-5-6.3v6.3h-1.2v-8.4h1l5,6.3v-6.3H328.5z"/>
	<path d="M342,374h-4.5l-0.9,2.1h-1.2l3.8-8.4h1.2l3.8,8.4h-1.3L342,374z M341.6,373.1l-1.8-4.1l-1.8,4.1H341.6z"/>
	<path d="M347.2,375.9c-0.6-0.2-1-0.5-1.4-0.8l0.4-0.9c0.3,0.3,0.7,0.5,1.2,0.7s1,0.3,1.5,0.3c0.7,0,1.2-0.1,1.6-0.4
		c0.3-0.2,0.5-0.5,0.5-0.9c0-0.3-0.1-0.5-0.3-0.7c-0.2-0.2-0.4-0.3-0.7-0.4c-0.3-0.1-0.7-0.2-1.2-0.3c-0.6-0.2-1.1-0.3-1.5-0.5
		s-0.7-0.4-1-0.7c-0.3-0.3-0.4-0.7-0.4-1.3c0-0.4,0.1-0.9,0.4-1.2c0.2-0.4,0.6-0.6,1.1-0.9c0.5-0.2,1.1-0.3,1.8-0.3
		c0.5,0,1,0.1,1.5,0.2s0.9,0.3,1.2,0.6l-0.4,1c-0.4-0.2-0.7-0.4-1.1-0.5s-0.8-0.2-1.2-0.2c-0.7,0-1.2,0.1-1.5,0.4s-0.5,0.6-0.5,1
		c0,0.3,0.1,0.5,0.3,0.7c0.2,0.2,0.4,0.3,0.7,0.4c0.3,0.1,0.7,0.2,1.2,0.3c0.6,0.2,1.1,0.3,1.5,0.5s0.7,0.4,1,0.7
		c0.3,0.3,0.4,0.7,0.4,1.3c0,0.4-0.1,0.8-0.4,1.2c-0.2,0.4-0.6,0.7-1.1,0.9s-1.1,0.3-1.8,0.3C348.4,376.2,347.8,376.1,347.2,375.9z"
		/>
	<path d="M355.9,375.9c-0.6-0.2-1-0.5-1.4-0.8l0.4-0.9c0.3,0.3,0.7,0.5,1.2,0.7s1,0.3,1.5,0.3c0.7,0,1.2-0.1,1.6-0.4
		c0.3-0.2,0.5-0.5,0.5-0.9c0-0.3-0.1-0.5-0.3-0.7c-0.2-0.2-0.4-0.3-0.7-0.4c-0.3-0.1-0.7-0.2-1.2-0.3c-0.6-0.2-1.1-0.3-1.5-0.5
		s-0.7-0.4-1-0.7c-0.3-0.3-0.4-0.7-0.4-1.3c0-0.4,0.1-0.9,0.4-1.2c0.2-0.4,0.6-0.6,1.1-0.9c0.5-0.2,1.1-0.3,1.8-0.3
		c0.5,0,1,0.1,1.5,0.2s0.9,0.3,1.2,0.6l-0.4,1c-0.4-0.2-0.7-0.4-1.1-0.5s-0.8-0.2-1.2-0.2c-0.7,0-1.2,0.1-1.5,0.4s-0.5,0.6-0.5,1
		c0,0.3,0.1,0.5,0.3,0.7c0.2,0.2,0.4,0.3,0.7,0.4c0.3,0.1,0.7,0.2,1.2,0.3c0.6,0.2,1.1,0.3,1.5,0.5s0.7,0.4,1,0.7
		c0.3,0.3,0.4,0.7,0.4,1.3c0,0.4-0.1,0.8-0.4,1.2c-0.2,0.4-0.6,0.7-1.1,0.9s-1.1,0.3-1.8,0.3C357.1,376.2,356.5,376.1,355.9,375.9z"
		/>
	<path d="M364.8,375.3c-0.6-0.6-0.9-1.6-0.9-2.8v-4.8h1.2v4.7c0,1.8,0.8,2.7,2.4,2.7c0.8,0,1.4-0.2,1.8-0.7c0.4-0.4,0.6-1.1,0.6-2
		v-4.7h1.2v4.8c0,1.2-0.3,2.1-0.9,2.8c-0.6,0.6-1.5,1-2.6,1S365.4,375.9,364.8,375.3z"/>
	<path d="M380.2,376.1l-1.8-2.6c-0.2,0-0.4,0-0.5,0h-2.1v2.6h-1.2v-8.4h3.3c1.1,0,1.9,0.3,2.6,0.8c0.6,0.5,0.9,1.2,0.9,2.1
		c0,0.6-0.2,1.2-0.5,1.7s-0.8,0.8-1.4,1l2,2.8H380.2z M379.6,372.1c0.4-0.3,0.6-0.8,0.6-1.4s-0.2-1.1-0.6-1.4s-1-0.5-1.7-0.5h-2v3.8
		h2C378.6,372.6,379.2,372.4,379.6,372.1z"/>
	<path d="M389.9,374h-4.5l-0.9,2.1h-1.2l3.8-8.4h1.2l3.8,8.4h-1.3L389.9,374z M389.5,373.1l-1.8-4.1l-1.8,4.1H389.5z"/>
	<path d="M401.7,367.7v8.4h-1l-5-6.3v6.3h-1.2v-8.4h1l5,6.3v-6.3H401.7z"/>
	<path d="M406.9,375.7c-0.7-0.4-1.2-0.9-1.6-1.5c-0.4-0.7-0.6-1.4-0.6-2.2c0-0.8,0.2-1.5,0.6-2.2s0.9-1.2,1.6-1.5
		c0.7-0.4,1.4-0.6,2.3-0.6c0.7,0,1.3,0.1,1.8,0.3s1,0.5,1.4,1l-0.8,0.8c-0.6-0.7-1.4-1-2.4-1c-0.6,0-1.2,0.1-1.7,0.4
		s-0.9,0.7-1.2,1.2c-0.3,0.5-0.4,1-0.4,1.6s0.1,1.2,0.4,1.7s0.7,0.9,1.2,1.2c0.5,0.3,1.1,0.4,1.7,0.4c0.9,0,1.7-0.3,2.4-1l0.8,0.8
		c-0.4,0.4-0.8,0.8-1.4,1c-0.5,0.2-1.2,0.3-1.8,0.3C408.4,376.2,407.6,376,406.9,375.7z"/>
	<path d="M421.4,375.1v1h-6.1v-8.4h5.9v1h-4.7v2.6h4.2v1h-4.2v2.7L421.4,375.1L421.4,375.1z"/>
	<path d="M429,367.7h3.5c0.9,0,1.7,0.2,2.4,0.5c0.7,0.4,1.2,0.8,1.6,1.5c0.4,0.6,0.6,1.4,0.6,2.2c0,0.8-0.2,1.6-0.6,2.2
		s-0.9,1.1-1.6,1.5s-1.5,0.5-2.4,0.5H429V367.7z M432.5,375.1c0.7,0,1.3-0.1,1.8-0.4s0.9-0.6,1.2-1.1s0.4-1,0.4-1.7
		s-0.1-1.2-0.4-1.6c-0.3-0.5-0.7-0.8-1.2-1.1c-0.5-0.3-1.1-0.4-1.8-0.4h-2.3v6.3L432.5,375.1L432.5,375.1z"/>
	<path d="M446.2,375.1v1h-6.1v-8.4h5.9v1h-4.7v2.6h4.2v1h-4.2v2.7L446.2,375.1L446.2,375.1z"/>
	<path d="M459.6,368.5c0.6,0.5,0.9,1.2,0.9,2.1s-0.3,1.6-0.9,2.1s-1.5,0.8-2.6,0.8h-2v2.5h-1.2v-8.4h3.3
		C458.2,367.7,459,368,459.6,368.5z M458.8,372.1c0.4-0.3,0.6-0.8,0.6-1.4s-0.2-1.1-0.6-1.4s-1-0.5-1.7-0.5h-2v3.8h2
		C457.8,372.5,458.4,372.4,458.8,372.1z"/>
	<path d="M469.6,375.1v1h-6.1v-8.4h5.9v1h-4.7v2.6h4.2v1h-4.2v2.7L469.6,375.1L469.6,375.1z"/>
	<path d="M478.4,376.1l-1.8-2.6c-0.2,0-0.4,0-0.5,0H474v2.6h-1.2v-8.4h3.3c1.1,0,1.9,0.3,2.6,0.8c0.6,0.5,0.9,1.2,0.9,2.1
		c0,0.6-0.2,1.2-0.5,1.7s-0.8,0.8-1.4,1l2,2.8H478.4z M477.8,372.1c0.4-0.3,0.6-0.8,0.6-1.4s-0.2-1.1-0.6-1.4s-1-0.5-1.7-0.5h-2v3.8
		h2C476.8,372.6,477.4,372.4,477.8,372.1z"/>
	<path d="M483.3,375.9c-0.6-0.2-1-0.5-1.4-0.8l0.4-0.9c0.3,0.3,0.7,0.5,1.2,0.7s1,0.3,1.5,0.3c0.7,0,1.2-0.1,1.6-0.4
		c0.3-0.2,0.5-0.5,0.5-0.9c0-0.3-0.1-0.5-0.3-0.7c-0.2-0.2-0.4-0.3-0.7-0.4c-0.3-0.1-0.7-0.2-1.2-0.3c-0.6-0.2-1.1-0.3-1.5-0.5
		s-0.7-0.4-1-0.7c-0.3-0.3-0.4-0.7-0.4-1.3c0-0.4,0.1-0.9,0.4-1.2c0.2-0.4,0.6-0.6,1.1-0.9c0.5-0.2,1.1-0.3,1.8-0.3
		c0.5,0,1,0.1,1.5,0.2s0.9,0.3,1.2,0.6l-0.4,1c-0.4-0.2-0.7-0.4-1.1-0.5s-0.8-0.2-1.2-0.2c-0.7,0-1.2,0.1-1.5,0.4s-0.5,0.6-0.5,1
		c0,0.3,0.1,0.5,0.3,0.7c0.2,0.2,0.4,0.3,0.7,0.4c0.3,0.1,0.7,0.2,1.2,0.3c0.6,0.2,1.1,0.3,1.5,0.5s0.7,0.4,1,0.7
		c0.3,0.3,0.4,0.7,0.4,1.3c0,0.4-0.1,0.8-0.4,1.2c-0.2,0.4-0.6,0.7-1.1,0.9s-1.1,0.3-1.8,0.3C484.5,376.2,483.9,376.1,483.3,375.9z"
		/>
	<path d="M492.9,375.7c-0.7-0.4-1.2-0.9-1.6-1.5c-0.4-0.7-0.6-1.4-0.6-2.2c0-0.8,0.2-1.5,0.6-2.2s0.9-1.2,1.6-1.5
		c0.7-0.4,1.4-0.6,2.3-0.6c0.8,0,1.6,0.2,2.3,0.6c0.7,0.4,1.2,0.9,1.6,1.5c0.4,0.7,0.6,1.4,0.6,2.2c0,0.8-0.2,1.5-0.6,2.2
		s-0.9,1.2-1.6,1.5s-1.4,0.6-2.3,0.6C494.3,376.2,493.5,376,492.9,375.7z M496.8,374.7c0.5-0.3,0.9-0.7,1.2-1.2s0.4-1,0.4-1.7
		c0-0.6-0.1-1.2-0.4-1.6c-0.3-0.5-0.7-0.9-1.2-1.2s-1-0.4-1.7-0.4s-1.2,0.1-1.7,0.4s-0.9,0.7-1.2,1.2c-0.3,0.5-0.4,1-0.4,1.6
		s0.1,1.2,0.4,1.7s0.7,0.9,1.2,1.2c0.5,0.3,1.1,0.4,1.7,0.4S496.3,375,496.8,374.7z"/>
	<path d="M509.9,367.7v8.4h-1l-5-6.3v6.3h-1.2v-8.4h1l5,6.3v-6.3H509.9z"/>
	<path d="M520.8,367.7v8.4h-1l-5-6.3v6.3h-1.2v-8.4h1l5,6.3v-6.3H520.8z"/>
	<path d="M530.6,375.1v1h-6.1v-8.4h5.9v1h-4.7v2.6h4.2v1h-4.2v2.7L530.6,375.1L530.6,375.1z"/>
	<path d="M534.4,375.9c-0.6-0.2-1-0.5-1.4-0.8l0.4-0.9c0.3,0.3,0.7,0.5,1.2,0.7s1,0.3,1.5,0.3c0.7,0,1.2-0.1,1.6-0.4
		c0.3-0.2,0.5-0.5,0.5-0.9c0-0.3-0.1-0.5-0.3-0.7s-0.4-0.3-0.7-0.4s-0.7-0.2-1.2-0.3c-0.6-0.2-1.1-0.3-1.5-0.5s-0.7-0.4-1-0.7
		c-0.3-0.3-0.4-0.7-0.4-1.3c0-0.4,0.1-0.9,0.4-1.2c0.2-0.4,0.6-0.6,1.1-0.9c0.5-0.2,1.1-0.3,1.8-0.3c0.5,0,1,0.1,1.5,0.2
		s0.9,0.3,1.2,0.6l-0.4,1c-0.4-0.2-0.7-0.4-1.1-0.5s-0.8-0.2-1.2-0.2c-0.7,0-1.2,0.1-1.5,0.4s-0.5,0.6-0.5,1c0,0.3,0.1,0.5,0.3,0.7
		s0.4,0.3,0.7,0.4s0.7,0.2,1.2,0.3c0.6,0.2,1.1,0.3,1.5,0.5s0.7,0.4,1,0.7c0.3,0.3,0.4,0.7,0.4,1.3c0,0.4-0.1,0.8-0.4,1.2
		c-0.2,0.4-0.6,0.7-1.1,0.9s-1.1,0.3-1.8,0.3C535.6,376.2,535,376.1,534.4,375.9z"/>
</g>
</svg>
